<?xml version="1.0" encoding="utf-8"?>
<!-- Generator: Adobe Illustrator 27.5.0, SVG Export Plug-In . SVG Version: 6.00 Build 0)  -->
<svg version="1.1" id="Layer_1" xmlns="http://www.w3.org/2000/svg" xmlns:xlink="http://www.w3.org/1999/xlink" x="0px" y="0px"
	 viewBox="0 0 297.543 346.077" style="enable-background:new 0 0 297.543 346.077;" xml:space="preserve">
<g>
	<g>
		<g>
			<path style="fill:#F89200;" d="M259.256,267.175c0,0-19.226-36.483,5.504-50.245c26.988-12.257,29.246-16.558,27.526-21.934
				c-1.72-5.376-16.343-10.537-35.912,5.806c-19.569,16.343-19.784,36.987-19.784,47.74
				C244.116,250.261,259.256,267.175,259.256,267.175z"/>
			<path style="fill:#B26602;" d="M259.257,267.538c-0.1,0-0.2-0.042-0.271-0.121c-0.151-0.169-15.149-16.847-22.478-18.522
				c-0.165-0.038-0.282-0.185-0.282-0.354c0-10.188,0-31.387,19.914-48.019c15.442-12.895,26.365-11.6,30.348-10.444
				c3.18,0.924,5.477,2.72,6.145,4.805c1.928,6.025-1.499,10.466-27.722,22.377c-24.108,13.417-5.522,49.382-5.332,49.744
				c0.085,0.163,0.036,0.364-0.115,0.468C259.402,267.517,259.329,267.538,259.257,267.538z M236.953,248.257
				c6.211,1.674,16.863,12.545,20.941,16.898c-3.653-8.132-14.542-36.727,6.689-48.544c27.814-12.634,28.889-16.717,27.356-21.506
				c-0.584-1.826-2.751-3.485-5.654-4.329c-11.941-3.465-25.735,7.011-29.679,10.304
				C237.135,217.342,236.955,238.074,236.953,248.257z"/>
		</g>
		<g>
			<g>
				<path d="M241.071,221.308c-0.468,1.129-0.888,2.251-1.263,3.365c3.163-0.147,8.675,0.267,14.423,3.814
					c0.356-0.86,0.766-1.702,1.23-2.524C249.63,220.487,244.121,220.603,241.071,221.308z"/>
				<path d="M239.39,225.971c-1.177,3.81-1.861,7.491-2.255,10.892c3.434-1.34,8.879-2.373,15.097,0.485
					c0.189-2.643,0.675-5.261,1.57-7.756C248.47,226.335,243.045,225.817,239.39,225.971z"/>
				<path d="M244.768,214.072c-0.706,1.145-1.35,2.293-1.939,3.439c3.375,0.172,10.146,1.141,14.291,5.93
					c0.589-0.776,1.237-1.527,1.953-2.248C255.251,215.518,248.235,214.311,244.768,214.072z"/>
				<path d="M236.621,244.8c-0.019,0.941-0.028,1.842-0.03,2.685c3.871-1.032,10.296-1.955,16.318,0.764
					c-0.344-1.936-0.593-3.937-0.706-5.957C245.979,240.925,240.119,243.038,236.621,244.8z"/>
				<path d="M253.258,203.601c-0.718,0.691-1.409,1.387-2.067,2.089c3.845,1.193,10.693,4.202,14.039,11.024
					c0.495-0.225,0.98-0.448,1.457-0.667C264.814,207.057,257.627,204.386,253.258,203.601z"/>
				<path d="M257.76,199.681c-0.46,0.365-0.921,0.731-1.387,1.12c-0.021,0.017-0.039,0.035-0.06,0.052
					c3.678,1.156,9.842,4.566,11.792,14.536c2.187-1.018,4.197-1.98,6.03-2.887C270.774,205.184,261.873,201.187,257.76,199.681z"/>
				<path d="M292.286,194.995c-1.625-5.079-14.77-9.956-32.718,3.301c4.267,1.96,12.328,6.443,15.869,13.556
					C292.337,203.339,293.744,199.552,292.286,194.995z"/>
				<path d="M249.643,207.416c-0.464,0.539-0.911,1.08-1.343,1.623c3.437,0.477,10.437,2.268,14.716,8.954
					c0.357-0.235,0.725-0.464,1.104-0.688C260.139,210.179,253.435,208.052,249.643,207.416z"/>
			</g>
			<path d="M236.759,242.844c0,0,4.17-3.248,8.165-3.38c-2.151-0.746-6.146,0.395-7.945,1.624
				C236.847,241.79,236.759,242.844,236.759,242.844z"/>
		</g>
		<path style="opacity:0.77;fill:#B7AEC2;" d="M292.286,194.995c-0.535-1.672-2.319-3.322-5.109-4.312
			c-1.072,4.345-3.492,8.201-7.148,10.831c-5.286,3.802-11.458,6.122-16.784,9.861c-2.675,1.878-5.038,4.12-7.261,6.508
			c-2.186,2.349-4.121,4.856-5.565,7.735c-1.477,2.945-2.36,6.091-2.404,9.394c-0.049,3.682,0.57,7.342,0.32,11.027
			c-0.013,0.186-0.27,0.772-0.552,0.613c-2.224-1.249-4.327-2.711-6.629-3.819c-1.188-0.572-2.42-1.062-3.718-1.317
			c-0.228-0.045-0.458-0.073-0.688-0.107c-0.148,2.67-0.157,5.081-0.157,7.13c7.527,1.72,22.667,18.634,22.667,18.634
			s-19.226-36.483,5.504-50.245C291.748,204.672,294.006,200.371,292.286,194.995z"/>
		<path style="opacity:0.53;fill:#F89200;" d="M241.649,231.61c1.749-6.787,4.455-13.366,8.399-19.181
			c1.96-2.891,4.21-5.586,6.733-8.002c2.643-2.532,5.612-4.892,8.789-6.722c3.761-2.167,7.892-3.902,12.187-4.635
			c2.253-0.385,4.575-0.488,6.857-0.545c2.026-0.051,4.054,0.018,6.076,0.166c-4.574-4.127-17.648-5.81-34.316,8.111
			c-19.569,16.343-19.784,36.987-19.784,47.74c0.749,0.171,1.575,0.498,2.452,0.938C239.273,243.46,240.15,237.425,241.649,231.61z"
			/>
	</g>
	<g>
		<path style="fill:#F89200;" d="M84.017,179.512c0,0-11.93,10.35-9.287,28.41c2.643,18.06,5.726,26.136,1.175,34.505
			c-4.845,9.984-4.552,16.005-4.552,16.005s0.881-3.524,3.818-5.286c-3.23,9.104-2.443,28.619,7.718,43.941
			c-8.871,0.645-21.896-1.603-28.74,11.847c-4.66,9.156-1.149,26.554,10.907,25.791c7.173,6.562,18.619,3.358,18.619,3.358
			c10.53,6.715,23.655-1.984,26.096-7.478c7.631,5.952,17.092,4.12,19.076,2.9c8.546,6.257,26.86,2.747,30.37,0
			c9.309,5.036,24.473,4.388,28.344-9.805c13.225,1.613,23.859-0.359,23.859-0.359c14.849-0.287,37.428,2.294,50.331-27.382
			c7.096-20.644-9.677-48.707-26.45-51.288c-5.161-0.323-9.032,1.29-9.032,1.29s-4.839-7.742-10.645-14.515
			c-6.774-10.645-9.999-12.903-9.999-12.903l-5.484-17.741c0,0,0-18.709-7.742-30.644C164.335,168.867,99.5,172.738,84.017,179.512z
			"/>
		<path style="fill:#B26602;" d="M92.103,340.886c-2.663,0-5.605-0.61-8.491-2.413c-1.415,0.353-11.909,2.691-18.689-3.376
			c-4.087,0.197-7.545-1.612-9.955-5.279c-3.748-5.7-4.25-14.946-1.144-21.049c5.86-11.516,16.236-11.72,24.574-11.884
			c1.346-0.026,2.63-0.052,3.843-0.122c-9.812-15.188-10.468-33.541-7.758-42.679c-2.082,1.758-2.771,4.406-2.778,4.435
			c-0.044,0.174-0.202,0.287-0.388,0.274c-0.179-0.018-0.318-0.164-0.328-0.344c-0.011-0.25-0.243-6.227,4.589-16.181
			c3.498-6.434,2.438-12.572,0.514-23.716c-0.535-3.096-1.14-6.604-1.722-10.577c-2.641-18.049,9.288-28.633,9.408-28.738
			c0.028-0.024,0.06-0.044,0.093-0.059c15.04-6.58,79.604-10.713,108.545-9.385c0.117,0.006,0.225,0.067,0.288,0.166
			c7.501,11.564,7.789,29.639,7.8,30.786l5.433,17.577c0.614,0.479,3.839,3.257,9.994,12.927
			c5.144,5.995,9.596,12.869,10.485,14.264c0.999-0.367,4.461-1.481,8.907-1.206c7.617,1.17,15.575,7.542,21.319,17.049
			c6.94,11.484,8.978,24.464,5.452,34.72c-11.947,27.479-32.127,27.546-46.862,27.595c-1.315,0.005-2.586,0.009-3.806,0.032
			c-0.046,0.013-10.611,1.929-23.599,0.393c-1.522,5.288-4.776,9.127-9.425,11.116c-5.63,2.411-13.124,1.903-19.154-1.28
			c-4.033,2.808-21.747,6.118-30.427,0.001c-2.262,1.145-11.247,2.945-18.917-2.771c-1.602,3.065-6.248,7.081-12.151,8.858
			C96.158,340.5,94.219,340.886,92.103,340.886z M83.673,337.718c0.068,0,0.136,0.02,0.195,0.057
			c4.987,3.18,10.189,2.599,13.674,1.549c5.747-1.73,10.561-5.867,11.895-8.867c0.045-0.102,0.135-0.178,0.244-0.206
			c0.109-0.026,0.223-0.003,0.312,0.066c7.606,5.935,16.959,3.926,18.662,2.877c0.125-0.078,0.286-0.072,0.405,0.016
			c8.334,6.102,26.493,2.699,29.931,0.008c0.115-0.089,0.27-0.102,0.398-0.034c5.877,3.181,13.226,3.713,18.726,1.36
			c4.525-1.936,7.67-5.72,9.095-10.941c0.048-0.174,0.221-0.288,0.394-0.265c13.008,1.584,23.644-0.336,23.749-0.356
			c1.283-0.029,2.558-0.033,3.876-0.038c14.535-0.048,34.441-0.114,46.188-27.131c3.445-10.028,1.431-22.779-5.398-34.081
			c-5.634-9.324-13.401-15.568-20.774-16.702c-4.983-0.315-8.8,1.249-8.837,1.266c-0.163,0.068-0.354,0.009-0.449-0.143
			c-0.048-0.077-4.891-7.797-10.612-14.471c-6.657-10.455-9.9-12.819-9.932-12.842c-0.065-0.047-0.115-0.114-0.138-0.19
			l-5.484-17.74c-0.01-0.034-0.016-0.071-0.016-0.107c0-0.186-0.09-18.576-7.581-30.289c-28.94-1.305-92.953,2.79-107.98,9.309
			c-0.749,0.68-11.631,10.923-9.126,28.048c0.58,3.964,1.185,7.467,1.718,10.559c1.888,10.932,3.027,17.532-0.584,24.172
			c-3.064,6.316-4.052,11.059-4.366,13.634c0.612-1.136,1.601-2.487,3.125-3.401c0.134-0.08,0.299-0.067,0.418,0.03
			c0.119,0.097,0.164,0.259,0.113,0.403c-3.076,8.667-2.726,27.93,7.678,43.619c0.071,0.107,0.081,0.245,0.024,0.361
			c-0.057,0.117-0.172,0.193-0.3,0.203c-1.413,0.102-2.914,0.133-4.501,0.164c-8.144,0.16-18.278,0.359-23.94,11.486
			c-2.998,5.893-2.513,14.818,1.104,20.32c1.596,2.428,4.532,5.257,9.457,4.944c0.1-0.011,0.195,0.028,0.268,0.095
			c6.938,6.345,18.161,3.305,18.276,3.275C83.608,337.723,83.64,337.718,83.673,337.718z"/>
	</g>
	<path style="fill:#F89200;" d="M71.352,258.432c0,0,0.881-3.524,3.818-5.286c-1.334,3.76-1.98,9.298-1.566,15.58
		c1.821-8.115,4.896-15.869,8.461-23.412c-1.61,0.876-3.177,1.831-4.648,2.926c-0.422,0.314-1.039-0.682-0.846-1.041
		c2.839-5.28,5.132-11.085,4.719-17.192c-0.188-2.783-0.865-5.586-1.474-8.301c-0.59-2.633-1.243-5.253-1.791-7.895
		c-1.098-5.293-1.616-10.625-0.796-15.999c0.993-6.5,3.368-12.779,6.881-18.338c-0.03,0.013-0.063,0.025-0.093,0.038
		c0,0-11.93,10.35-9.287,28.41c2.643,18.06,5.726,26.136,1.175,34.505C71.058,252.411,71.352,258.432,71.352,258.432z"/>
	<path style="fill:#FFFFFF;" d="M89.284,209.472c1.308,4.91,2.559,9.841,3.46,14.845c0.434,2.411,0.714,4.846,1.2,7.248
		c0.471,2.332,1.059,4.639,1.723,6.923c1.335,4.593,2.955,9.128,4.971,13.469c1.823,3.925,4.046,7.386,7.379,10.199
		c5.947,5.02,13.532,7.741,18.738,13.681c3.038,3.466,5.111,7.522,7.127,11.634c1.922,3.92,3.878,7.906,6.861,11.136
		c0.018-1.512,0.064-3.023,0.173-4.531c0.482-6.65,2.166-13.024,4.522-19.242c1.282-3.383,2.914-6.557,4.525-9.79
		c0.819-1.645,1.613-3.309,2.249-5.035c0.561-1.525,1.028-3.087,1.563-4.623c0.244-0.701,0.59-1.456,0.653-2.205
		c0.049-0.594-0.154-1.205-0.289-1.775c-0.712-3.002-1.298-6.082-1.57-9.156c-0.51-5.774,0.277-11.563,2.361-16.974
		c4.158-10.795,12.292-19.499,18.52-29.088c5.294-8.152,9.657-17.024,12.909-26.219c-30.4-0.576-87.885,3.218-102.342,9.543
		c0,0-0.365,0.32-0.946,0.93C84.139,190.331,86.726,199.867,89.284,209.472z"/>
	<g>
		<path style="opacity:0.77;fill:#B7AEC2;" d="M241.59,246.794c3.94,5.205,7.149,10.964,9.449,17.074
			c2.457,6.524,3.67,14.532-0.738,19.933c-4.329,5.303-12.899,5.703-18.654,1.997c-5.756-3.706-8.896-10.541-9.741-17.334
			c-0.845-6.793,0.303-13.659,1.448-20.408c-6.837,2.926-6.927,20.557-10.391,30.836c1.016-15.856-1.056-31.903-6.067-46.981
			c4.952,23.081-6.057,48.718-26.202,61.023c-2.037,1.244-4.302,2.395-6.682,2.216c-2.38-0.179-4.762-2.214-4.465-4.582
			c-2.338,1.031-4.677,2.062-7.015,3.092c-0.415-1.71-0.83-3.42-1.245-5.13c-1.085,1.97-2.169,3.94-3.254,5.91
			c-6.662-10.368-2.357-23.977,2.022-35.498c4.379-11.52,8.443-25.286,1.447-35.433c-2.139,5.868-4.279,11.736-6.419,17.604
			c-2.35-9.618-1.598-19.969,2.118-29.147c-6.792,3.342-9.871,11.5-10.227,19.061s1.209,13.977,1.103,21.546
			c-0.176,12.637-5.236,25.698-10.363,37.25c-5.491-10.066-10.983-20.132-16.474-30.198c3.538,1.477,7.737,0.899,12.816-0.366
			c-3.294-1.894-12.351-3.705-17.703-16.221c-0.435,1.441-1.509,5.794-1.944,7.235c-1.514-3.612-3.837-7.698-4.725-10.611
			c-0.329,7.246,1.243,15.756,2.422,21.66C99.693,249.548,92.48,232.477,92.69,215.37c-7.542,17.004-2.673,38.68,11.417,50.824
			c6.94,5.982,16.351,10.617,18.596,19.5c1.374,5.435-0.658,11.582-5.001,15.127c-4.343,3.546-10.771,4.306-15.822,1.873
			c-2.725-4.392-5.45-8.785-8.175-13.177c0.011,2.511,0.021,5.023,0.032,7.534c-11.699-13.226-17.226-31.698-14.714-49.176
			c-0.215-3.819-0.58-7.628-1.077-11.421c-0.332,2.062-0.975,4.01-2.042,5.972c-4.845,9.984-4.552,16.005-4.552,16.005
			s0.881-3.524,3.818-5.286c-3.23,9.104-2.443,28.619,7.718,43.941c-8.871,0.645-21.896-1.603-28.74,11.847
			c-4.66,9.156-1.15,26.554,10.907,25.791c7.173,6.562,18.618,3.358,18.618,3.358c10.53,6.715,23.655-1.984,26.097-7.478
			c7.631,5.952,17.092,4.12,19.076,2.9c8.546,6.257,26.86,2.747,30.37,0c9.309,5.036,24.473,4.388,28.344-9.805
			c13.225,1.613,23.859-0.358,23.859-0.358c14.849-0.287,37.429,2.294,50.331-27.382
			C267.952,277.914,255.919,254.204,241.59,246.794z"/>
	</g>
	<path style="fill:#FFFFFF;" d="M213.942,316.911c-0.182-5.655,0.491-11.309,2.295-16.684c0.464-1.381,1.02-2.716,1.633-4.036
		c0.435-0.935,0.912-1.865,1.239-2.845c0.273-0.817,0.419-1.661,0.245-2.514c-0.217-1.07-0.837-2.036-1.457-2.915
		c-1.391-1.974-4.84-4.145-6.915-5.344c-1.899-1.098-4.083-2.061-6.312-2.121c-1.598,3.867-3.948,7.349-6.479,10.662
		c-2.272,2.973-4.694,5.831-6.888,8.863c-2.009,2.776-4.17,5.834-4.549,9.323c-0.387,3.561,0.368,7.177,0.867,10.69
		c0.152,1.07,0.288,2.143,0.391,3.219c13.075,1.542,24.972,0.21,24.972,0.21c0.483-0.009,0.975-0.016,1.473-0.02
		C214.197,321.245,214.012,319.083,213.942,316.911z"/>
	<path style="fill:#B7AEC2;" d="M217.898,287.917c-0.077-0.109-0.181-0.219-0.269-0.329c-0.079,0.171-0.15,0.345-0.233,0.514
		c-0.816,1.665-1.82,3.283-3.32,4.412c-1.516,1.14-3.327,1.766-4.934,2.753c-1.055,0.649-1.732,1.339-2.241,2.441
		c-1.008,2.179-1.64,4.531-2.419,6.797c-0.721,2.096-1.45,4.479-2.946,6.174c-0.475,0.538-1.108,1.001-1.856,0.97
		c-0.844-0.035-1.663-0.683-2.12-1.357c-1.555-2.29-0.957-5.636-0.404-8.152c0.666-3.033,1.704-5.984,2.829-8.874
		c1.289-3.309,2.716-6.566,3.651-10c0.101-0.371,0.184-0.746,0.272-1.121c-1.54,3.2-3.56,6.147-5.716,8.969
		c-2.272,2.973-4.694,5.831-6.888,8.863c-2.009,2.776-4.17,5.834-4.549,9.324c-0.387,3.561,0.368,7.177,0.867,10.69
		c0.152,1.07,0.288,2.143,0.391,3.219c13.075,1.542,24.972,0.21,24.972,0.21c0.483-0.009,0.975-0.015,1.473-0.02
		c-0.261-2.154-0.446-4.316-0.516-6.488c-0.182-5.655,0.491-11.309,2.295-16.684c0.463-1.381,1.02-2.716,1.633-4.036
		c0.435-0.936,0.912-1.865,1.239-2.845c0.273-0.817,0.419-1.661,0.245-2.514C219.137,289.762,218.517,288.796,217.898,287.917z"/>
	<g>
		<g>
			<path style="fill:#FFFFFF;" d="M184.947,308.028c-2.681-3.55-11.303-6.521-19.634-2.826c-10.143-8.549-27.105-7.148-33.879-0.213
				c-18.87-4.516-23.547,8.225-23.547,8.225s-2.258-4.677-14.031-6.451c-4.695-6.091-11.086-8.63-17.113-9.478
				c-8.002,0.202-17.21,1.068-22.594,11.648c-4.66,9.156-1.15,26.554,10.907,25.791c7.173,6.562,18.619,3.358,18.619,3.358
				c10.53,6.715,23.655-1.984,26.096-7.478c7.631,5.952,17.092,4.12,19.076,2.9c8.546,6.257,26.86,2.747,30.37,0
				c9.309,5.036,24.473,4.388,28.344-9.805c0.228,0.028,0.452,0.052,0.678,0.078C188.749,316.413,187.333,311.188,184.947,308.028z"
				/>
			<path style="fill:#C6B9C0;" d="M92.103,340.886c-2.663,0-5.605-0.61-8.491-2.413c-1.415,0.353-11.909,2.691-18.689-3.376
				c-4.087,0.197-7.545-1.612-9.955-5.279c-3.748-5.7-4.25-14.946-1.144-21.049c5.359-10.533,14.255-11.628,22.909-11.848
				c7.403,1.037,13.21,4.234,17.32,9.504c9.367,1.44,12.75,4.696,13.777,6.04c1.274-2.531,7.128-11.706,23.489-7.876
				c6.994-6.938,23.898-8.194,34.054,0.19c8.542-3.676,17.149-0.567,19.863,3.03c1.87,2.475,3.972,7.259,3.365,15.992
				c-0.007,0.099-0.054,0.19-0.13,0.254c-0.077,0.064-0.173,0.09-0.274,0.082l-0.371-0.042c-1.522,5.288-4.776,9.128-9.425,11.117
				c-5.63,2.411-13.124,1.903-19.154-1.28c-4.033,2.808-21.747,6.118-30.427,0.001c-2.262,1.145-11.247,2.945-18.917-2.771
				c-1.602,3.065-6.248,7.081-12.151,8.858C96.158,340.5,94.219,340.886,92.103,340.886z M83.673,337.718
				c0.068,0,0.136,0.02,0.195,0.057c4.987,3.18,10.189,2.599,13.674,1.549c5.747-1.73,10.561-5.867,11.895-8.867
				c0.045-0.102,0.135-0.178,0.244-0.206c0.109-0.026,0.223-0.003,0.312,0.066c7.606,5.935,16.959,3.926,18.662,2.877
				c0.125-0.078,0.286-0.072,0.405,0.016c8.334,6.102,26.493,2.699,29.931,0.008c0.115-0.089,0.27-0.102,0.398-0.034
				c5.877,3.181,13.226,3.713,18.726,1.36c4.525-1.936,7.67-5.72,9.095-10.941c0.048-0.174,0.221-0.288,0.394-0.265l0.297,0.033
				c0.506-8.266-1.476-12.783-3.243-15.124l0,0c-3.935-5.21-13.832-5.091-19.196-2.712c-0.126,0.056-0.276,0.036-0.382-0.054
				c-9.93-8.37-26.657-7.123-33.384-0.238c-0.089,0.092-0.224,0.133-0.345,0.1c-18.341-4.384-23.076,7.873-23.122,7.997
				c-0.05,0.137-0.177,0.231-0.323,0.239c-0.138-0.004-0.282-0.074-0.346-0.205c-0.022-0.044-2.37-4.534-13.758-6.249
				c-0.093-0.014-0.177-0.064-0.234-0.138c-3.996-5.184-9.673-8.326-16.876-9.34c-8.374,0.217-17.041,1.278-22.219,11.453
				c-2.998,5.893-2.513,14.818,1.104,20.32c1.596,2.428,4.532,5.257,9.457,4.944c0.1-0.011,0.195,0.028,0.268,0.095
				c6.938,6.345,18.161,3.305,18.276,3.275C83.608,337.723,83.64,337.718,83.673,337.718z"/>
		</g>
	</g>
	<g style="opacity:0.77;">
		<path style="fill:#B7AEC2;" d="M184.947,308.028c-0.845-1.119-2.281-2.178-4.11-2.991c-0.105,1.352-0.165,2.707-0.135,4.063
			c0.038,1.716,0.153,3.431,0.121,5.148c-0.055,2.906-0.61,5.694-2.309,8.104c-1.322,1.875-3.36,3.192-5.524,3.886
			c-2.283,0.732-4.769,0.835-7.081,0.171c-2.428-0.698-4.451-2.347-5.877-4.41c-1.274-1.844-1.884-4.056-1.559-6.287
			c0.325-2.227,1.44-4.255,2.742-6.057c1.182-1.636,2.532-3.133,3.92-4.593c-1.292-1.066-2.691-1.974-4.164-2.733
			c-1.33,1.481-2.532,3.075-3.498,4.873c-0.72,1.339-1.31,2.743-1.811,4.177c-0.279,0.797-0.564,1.61-0.765,2.431
			c-0.146,0.595-0.21,1.219-0.307,1.823c-0.44,2.729-0.917,5.496-1.956,8.073c-0.968,2.398-2.507,4.691-4.96,5.745
			c-1.256,0.539-2.478,0.888-3.857,0.908c-1.494,0.021-2.977-0.272-4.398-0.716c-5.933-1.853-11.42-6.63-11.78-13.181
			c-0.185-3.37,0.938-6.672,2.517-9.605c0.35-0.65,0.737-1.279,1.141-1.898c-1.189-0.28-2.322-0.492-3.401-0.642
			c-0.123,0.327-0.249,0.654-0.39,0.974c-0.703,1.601-1.766,2.847-2.943,4.119c-1.02,1.102-2.061,2.203-2.816,3.511
			c-0.512,0.887-0.92,1.849-1.229,2.824c-0.57,1.803-0.915,3.667-1.396,5.495c-0.404,1.539-0.872,3.298-2.021,4.468
			c-1.071,1.091-2.543,0.935-3.822,0.312c-1.965-0.957-3.651-2.523-4.596-4.503c-0.973-2.038-1.215-4.374-1.044-6.605
			c0.045-0.585,0.123-1.166,0.222-1.745c-0.269-0.487-2.915-4.733-14.006-6.404c-4.695-6.091-11.086-8.63-17.113-9.478
			c-1.707,0.043-3.468,0.117-5.235,0.309c0.616,0.195,1.222,0.414,1.807,0.683c3.276,1.508,5.401,4.428,6.07,7.954
			c0.764,4.028-0.136,8.252-1.024,12.183c-0.234,1.037-0.495,2.081-0.751,3.131c0.689-1.152,1.492-2.236,2.385-3.229
			c2.022-2.248,4.627-4.212,7.571-5.04c2.624-0.738,5.351-0.278,7.292,1.722c1.114,1.149,1.819,2.637,2.264,4.159
			c0.576,1.971,0.817,4.145,0.646,6.192c-0.29,3.479-2.024,6.49-4.979,8.368c-3.023,1.921-6.733,2.575-10.265,2.628
			c-3.615,0.054-7.275-0.518-10.686-1.722c-4.678-1.651-9.083-4.21-13.09-7.108c-2.15-1.555-4.199-3.238-6.184-4.995
			c1.238,6.776,5.375,12.656,12.492,12.205c7.173,6.562,18.618,3.358,18.618,3.358c10.53,6.715,23.655-1.984,26.097-7.478
			c7.631,5.952,17.092,4.12,19.076,2.9c8.546,6.257,26.86,2.747,30.37,0c9.309,5.036,24.473,4.388,28.344-9.805
			c0.228,0.028,0.452,0.052,0.678,0.078C188.749,316.413,187.333,311.188,184.947,308.028z"/>
	</g>
	<g>
		<path style="fill:#FFFFFF;" d="M220.82,300.294c0,0-11.612-3.584-13.763,8.888c-2.15,12.473,6.021,17.634,17.92,18.637
			c11.899,1.004,25.375,0.287,28.386-2.007c3.011-2.294,11.326-11.469,6.021-21.361c-5.304-9.892-14.193-5.448-14.193-5.448
			S234.726,285.672,220.82,300.294z"/>
		<path style="fill:#C6B9C0;" d="M235.646,328.623c-3.578,0-7.274-0.152-10.699-0.44c-7.622-0.643-12.983-2.907-15.936-6.728
			c-2.409-3.116-3.187-7.266-2.312-12.334c0.668-3.873,2.303-6.633,4.86-8.202c3.708-2.275,8.114-1.31,9.15-1.034
			c4.551-4.729,9.216-7.029,13.895-6.791c5.897,0.279,9.816,4.442,10.694,5.467c1.555-0.65,9.52-3.402,14.409,5.72
			c5.331,9.942-2.839,19.32-6.121,21.821C251.304,327.838,243.785,328.623,235.646,328.623z M217.203,300.187
			c-1.61,0-3.541,0.294-5.269,1.356c-2.368,1.455-3.889,4.047-4.519,7.702c-0.837,4.859-0.107,8.818,2.172,11.767
			c2.822,3.652,8.011,5.821,15.42,6.446c12.491,1.052,25.377,0.169,28.135-1.933c3.154-2.404,11.014-11.404,5.922-20.901
			c-5.072-9.456-13.359-5.468-13.711-5.293c-0.152,0.075-0.342,0.034-0.448-0.101c-0.04-0.051-4.096-5.116-10.345-5.409
			c-4.494-0.194-9.034,2.052-13.478,6.726c-0.094,0.1-0.241,0.135-0.37,0.097C220.686,300.634,219.188,300.187,217.203,300.187z"/>
	</g>
	<path style="opacity:0.77;fill:#B7AEC2;" d="M258.833,309.305c-2.109,2.26-5.522,3.384-8.511,2.4
		c-3.144-1.035-5.468-4.32-5.048-7.658c0.192-1.525,0.904-2.919,1.592-4.271c0.259-0.508,0.509-1.021,0.746-1.54
		c-1.466,0.294-2.421,0.768-2.421,0.768s-1.227-1.562-3.398-3.03c-0.71,1.53-1.093,3.189-1.322,4.857
		c-0.466,3.398-0.19,7.487-3.108,9.909c-1.355,1.125-3.093,1.406-4.804,1.254c-1.869-0.166-3.751-0.524-5.446-1.359
		c-2.648-1.304-4.215-3.727-4.774-6.576c-0.322-1.642-0.338-3.313-0.301-4.98c-0.403,0.383-0.809,0.785-1.218,1.215
		c0,0-1.715-0.526-3.947-0.471c-0.316,1.891-0.475,3.813-0.574,5.695c-0.093,1.768-0.155,3.54-0.334,5.302
		c-0.151,1.484-0.459,3.183-1.656,4.205c-1.947,1.66-5.154,1.043-6.666-0.869c-0.376-0.476-0.678-1.002-0.923-1.557
		c-0.193,10.014,7.511,14.313,18.258,15.22c11.899,1.003,25.375,0.287,28.386-2.007c2.75-2.095,9.917-9.93,7.1-18.809
		C260.02,307.825,259.489,308.602,258.833,309.305z"/>
	<path style="fill:#A83134;" d="M252.049,324.089c-0.354-1.024-1.321-1.717-2.246-2.19c-2.16-1.105-4.691-1.118-7.064-1.065
		c-3.142,0.071-6.284,0.443-9.358,1.098c-1.457,0.31-2.899,0.693-4.296,1.213c-1.238,0.461-2.527,1.033-3.518,1.928
		c-0.744,0.672-1.334,1.563-1.422,2.582c-0.002,0.028,0.004,0.056,0.003,0.084c0.275,0.028,0.55,0.056,0.829,0.08
		c10.435,0.88,22.081,0.437,26.82-1.233C252.113,325.8,252.333,324.912,252.049,324.089z"/>
	<g>
		<path style="fill:#84747D;" d="M222.742,297.898c-2.192,1.501-3.123,4.414-3.213,6.965c-0.115,3.286,1.167,6.329,2.549,9.238
			c0.125,0.264,0.671-0.288,0.584-0.519c-1.016-2.682-2.033-5.521-2.097-8.419c-0.057-2.579,0.764-4.778,2.348-6.787
			C223.087,298.153,223.189,297.592,222.742,297.898z"/>
		<path style="fill:#84747D;" d="M243.821,301.864c0.454-1.071,1.175-1.901,1.948-2.753c0.3-0.33,0.348-0.991-0.25-0.658
			c-2.2,1.224-3.307,4.142-3.52,6.524c-0.276,3.088,0.799,6.073,1.836,8.927c0.083,0.228,0.559-0.249,0.506-0.451
			c-0.702-2.664-1.438-5.415-1.273-8.197C243.136,304.106,243.37,302.928,243.821,301.864z"/>
	</g>
	<g>
		<path style="fill:#A83134;" d="M238.364,318.053c0,1.381-2.275,2.5-5.08,2.5s-5.08-1.119-5.08-2.5c0-1.381,2.275-2.5,5.08-2.5
			S238.364,316.673,238.364,318.053z"/>
		<ellipse style="fill:#A83134;" cx="249.008" cy="316.602" rx="2.339" ry="1.935"/>
		<path style="fill:#A83134;" d="M221.026,321.239c0,1.136-1.39,2.056-3.105,2.056c-1.715,0-3.105-0.921-3.105-2.056
			s1.39-2.056,3.105-2.056C219.636,319.182,221.026,320.103,221.026,321.239z"/>
	</g>
	<g>
		<g>
			<path style="fill:#84747D;" d="M130.765,303.716c-3.778-0.756-8.145-0.69-11.895,0.179c-3.671,0.851-6.944,2.796-9.249,5.802
				c-4.895,6.384-4.491,15.465-0.035,21.957c0.109,0.159,0.549-0.312,0.471-0.478c-3.155-6.687-4.65-14.932,0.363-21.169
				c2.282-2.839,5.615-4.358,9.154-4.936c3.522-0.576,6.958-0.115,10.486-0.059C130.481,305.019,131.363,303.836,130.765,303.716z"
				/>
			<path style="fill:#84747D;" d="M186.603,308.744c-2.4-3.712-6.112-5.964-10.551-6.154c-3.362-0.144-7.168,0.377-10.212,2.068
				c-1.18-1.444-2.996-2.457-4.621-3.273c-2.006-1.007-4.151-1.708-6.352-2.138c-4.484-0.874-9.208-0.694-13.626,0.447
				c-4.355,1.125-8.493,3.273-11.503,6.671c-2.916,3.292-4.654,7.515-5.151,11.866c-0.305,2.663-0.112,5.374,0.453,7.991
				c0.301,1.394,0.715,2.756,1.232,4.085c0.581,1.493,1.373,2.742,2.174,4.113c0.107,0.184,0.507-0.226,0.428-0.384
				c-1.02-2.027-1.802-4.336-2.416-6.52c-0.65-2.311-1.035-4.687-1.041-7.09c-0.011-4.444,1.277-8.998,4.018-12.544
				c5.285-6.838,15.468-8.691,23.594-7.375c2.155,0.349,4.273,0.949,6.268,1.838c1.089,0.486,2.135,1.063,3.124,1.73
				c0.693,0.467,1.331,1.011,2.003,1.504c-0.417,0.315-0.818,0.651-1.187,1.026c-3.055,3.1-4.669,7.708-5.37,11.921
				c-0.87,5.228-0.385,10.763,2.012,15.534c0.107,0.212,0.532-0.241,0.472-0.422c-2.645-7.951-2.914-17.614,2.029-24.798
				c0.788-1.145,1.772-2.024,2.878-2.7c0.009,0.005,0.017,0.012,0.026,0.017c0.259,0.154,0.726-0.187,0.915-0.535
				c2.439-1.179,5.338-1.52,8.076-1.504c4.12,0.025,7.793,1.843,10.275,5.137c1.448,1.922,2.364,4.24,2.777,6.602
				c0.43,2.453,0.124,4.816,0.12,7.273c-0.001,0.835,1.148-0.327,1.239-0.626C190.01,318.121,189.071,312.561,186.603,308.744z"/>
		</g>
		<path style="fill:#84747D;" d="M161.346,233.124c-0.025-0.172-0.428,0.19-0.421,0.332c0.293,6.122-1.323,11.91-3.685,17.434
			c-0.403-1.112-1.092-2.182-1.557-3.228c-0.674-1.516-1.276-3.063-1.783-4.643c-1.015-3.168-1.644-6.456-1.804-9.781
			c-0.313-6.515,1.228-13.033,4.638-18.61c0.357-0.584-0.26-0.474-0.526-0.104c-3.896,5.424-5.731,12.135-5.636,18.783
			c0.049,3.44,0.607,6.869,1.553,10.175c0.477,1.669,1.056,3.31,1.73,4.91c0.593,1.408,1.251,3.525,2.489,4.507
			c-1.134,2.45-2.386,4.851-3.661,7.204c-2.123,3.92-4.293,7.831-6.05,11.933c-1.788,4.176-2.931,8.522-3.805,12.97
			c-0.912,4.646-1.642,9.35-3.052,13.876c-1.707-3.59-3.79-7.033-5.688-10.518c-1.982-3.64-3.866-7.352-5.971-10.922
			c-1.826-3.098-4.008-5.476-7.204-7.186c-3.092-1.654-5.908-3.393-8.32-5.981c-2.687-2.883-4.768-6.296-5.976-10.054
			c-0.062-0.193-0.48,0.217-0.439,0.393c0.872,3.731,2.586,7.166,4.978,10.057c-0.148-0.122-0.302-0.238-0.446-0.364
			c-1.389-1.211-2.7-2.51-3.93-3.881c-2.482-2.768-4.625-5.831-6.41-9.091c-3.878-7.08-6.066-14.997-6.797-23.02
			c-0.436-4.787-0.393-9.616,0.014-14.402c0.017-0.198-0.338,0.118-0.357,0.245c-2.416,16.27,0.641,33.59,11.391,46.449
			c1.345,1.609,2.797,3.129,4.351,4.538c1.501,1.361,3.125,2.865,4.995,3.689c0.257,0.113,0.667-0.23,0.855-0.589
			c0.848,0.667,1.741,1.285,2.685,1.839c1.636,0.96,3.395,1.724,4.922,2.862c1.501,1.118,2.698,2.572,3.719,4.129
			c2.202,3.358,3.95,7.057,5.856,10.587c2.357,4.365,4.485,8.955,7.17,13.127c-0.091,0.75,1.063,0.237,1.282-0.378
			c3.219-9.025,3.436-18.805,7.092-27.704c3.528-8.59,9.045-16.244,12.059-25.062C161.219,242.934,162.07,238.087,161.346,233.124z"
			/>
		<path style="fill:#84747D;" d="M212.484,253.043c-0.213-5.557-1.664-10.875-4.415-15.713c-0.12-0.21-0.568,0.25-0.483,0.432
			c2.273,4.907,3.619,10.342,3.833,15.748c0.165,4.164-0.493,8.088-1.542,12.003c0.242-3.407-0.245-6.716-1.785-9.838
			c-0.126-0.255-0.64,0.281-0.561,0.5c3.271,9.119-0.313,18.703-4.971,26.616c-5.096,8.655-11.046,16.793-16.416,25.277
			c-0.652,1.031,0.533,0.972,1.023,0.255c4.729-6.922,9.311-13.979,13.836-21.036c3.578-5.581,7.006-11.565,8.354-18.118
			c0.051-0.049,0.094-0.097,0.112-0.131C211.91,264.206,212.689,258.407,212.484,253.043z"/>
		<path style="fill:#84747D;" d="M226.806,245.555c-6.246,1.843-8.816,8.614-8.916,14.603c-0.072,4.298,0.803,8.542,1.167,12.811
			c0.358,4.205,0.377,8.439,0.058,12.647c-0.373,4.923-1.283,9.753-2.485,14.536c-0.104,0.412,0.191,0.518,0.525,0.457
			c0.404-0.074,0.742-0.613,0.844-0.971c2.077-7.266,2.932-14.945,2.767-22.492c-0.087-3.96-0.591-7.857-1.065-11.783
			c-0.443-3.674-0.757-7.503,0.264-11.111c0.969-3.423,3.174-6.678,6.582-8.024C226.734,246.156,227.146,245.455,226.806,245.555z"
			/>
		<path style="fill:#84747D;" d="M95.863,306.682c-2.695-1.112-6.268,0.305-8.678,1.574c-2.588,1.363-4.875,3.332-6.688,5.621
			c-4.013,5.063-5.693,11.495-5.197,17.889c0.028,0.366,0.608-0.175,0.61-0.406c0.046-5.833,1.364-11.931,5.029-16.607
			c1.548-1.975,3.449-3.66,5.637-4.896c1.222-0.69,2.535-1.237,3.897-1.578c1.564-0.391,3.08-0.3,4.673-0.276
			C95.58,308.01,96.469,306.932,95.863,306.682z"/>
	</g>
	<g>
		<path d="M197.844,203.272c0.009,3.546-0.821,7.091-2.403,10.264c0.033-1.915,0.066-3.829,0.1-5.744
			c-1.409,6.235-4.435,12.098-8.702,16.858c6.967-4.102,12.315-10.797,14.98-18.418l-1.57-5.079
			c-0.416,2.72-1.084,5.402-2.016,7.992C198.585,207.195,198.45,205.159,197.844,203.272z"/>
		<path d="M184.414,203.305c3.587-4.345,6.573-9.288,8-14.739c0.107,2.021,0.214,4.042,0.322,6.063
			c0.918-3.176,1.078-6.568,0.462-9.816c0.544,1.726,1.087,3.452,1.631,5.178c0.761-4.775,0.879-9.647,0.396-14.458
			c-0.804-1.878-1.736-3.694-2.826-5.375c-0.887-0.041-1.811-0.076-2.769-0.107c-0.663,16.379-6.766,32.508-17.172,45.18
			C176.634,211.449,180.826,207.649,184.414,203.305z"/>
		<path d="M205.331,226.708c-0.513,3.969-1.587,7.865-3.179,11.537c0.63-1.615,0.678-3.449,0.132-5.095
			c-1.424,4.415-4.436,8.208-8.069,11.091c-3.633,2.884-7.874,4.915-12.219,6.538c7.324-1.783,14.297-4.999,20.408-9.413
			c2.235-1.614,4.417-3.464,5.64-5.934c1.511-3.053,1.364-6.655,0.821-10.018c-0.24-1.483-0.547-2.962-0.811-4.445
			c-1.024-1.171-1.72-1.828-2.096-2.155c0.512,3.639,0.762,7.314,0.735,10.988C206.239,228.771,205.785,227.74,205.331,226.708z"/>
		<path d="M141.676,202.265c1.373-0.184,2.745-0.367,4.118-0.55c-3.514,2.824-7.028,5.647-10.543,8.471
			c1.242-0.486,2.484-0.973,3.726-1.459c-4.287,5.035-7.402,11.062-9.028,17.473c4.465-7.976,12.02-13.675,19.442-19.009
			c7.422-5.334,15.119-10.739,20.094-18.407c-0.683,2.281-1.367,4.562-2.05,6.843c3.556-3.757,5.74-8.642,7.002-13.658
			c0.992-3.94,1.448-7.987,1.79-12.041c-2.703,0.023-5.52,0.07-8.426,0.142c-0.965,6.84-3.699,13.426-7.911,18.903
			C155.246,195.012,148.844,199.684,141.676,202.265z"/>
		<path d="M87.662,208.647c0.173-2.095,0.347-4.19,0.52-6.284c0.738,5.286,5.328,9.012,8.764,13.097
			c4.411,5.243,9.113,11.894,7.99,18.619c1.953-11.695-3.529-19.751-6.939-29.168c1.561,1.84,3.122,3.681,4.683,5.521
			c-2.899-4.82-5.798-9.641-8.697-14.461c-0.13,0.539-0.26,1.078-0.39,1.618c-0.795-1.643-1.362-3.396-1.678-5.193
			c1.144,0.849,2.289,1.698,3.433,2.548c-3.122-5.255-4.917-11.287-5.213-17.391c-1.967,0.493-3.674,1.007-5.076,1.54
			C84.945,189.004,85.713,198.931,87.662,208.647z"/>
		<path d="M194.698,277.144c-5.725,0.598-11.501-1.122-16.568-3.853c6.305,6.233,16.255,8.47,24.622,5.537
			c-2.664,1.479-5.328,2.957-7.993,4.436c3.691,0.205,7.442-1.357,9.896-4.122c1.228-1.383,2.203-3.122,2.648-4.924
			c0.647-2.619,0.361-3.415-1.757-1.89C202.127,274.79,199.02,276.693,194.698,277.144z"/>
		<path d="M213.954,254.876c0.029,13.122-6.718,25.444-7.421,38.547c2.157-9.771,8.601-18.315,9.935-28.232
			c1.443-10.728-3.304-21.595-1.743-32.307c-0.502,3.371-1.688,6.434-1.884,9.928c-0.423-0.665-0.74-0.617-1.189-0.996
			C212.819,246.179,213.944,250.299,213.954,254.876z"/>
		<path d="M234.625,278.23c2.703-4.904,3.772-10.691,2.998-16.237c0.544,1.1,1.089,2.201,1.633,3.301
			c-0.248-3.087-1.159-6.119-2.655-8.831c1.405,0.831,2.525,2.135,3.134,3.649c-0.472-5.316-3.499-10.346-7.974-13.253
			c0.759,2.288,1.519,4.576,2.278,6.865c-1.306-2.489-3.559-4.466-6.197-5.437c2.349,3.462,4.127,7.312,5.24,11.345
			c-0.224-0.812-2.875-6.93-3.704-6.218c-0.645,0.554,2.203,6.435,2.539,7.49C233.701,266.495,234.625,272.361,234.625,278.23z"/>
		<path d="M247.987,289.609c4.482-5.416,6.746-12.615,6.168-19.621c1.231,2.758,1.897,5.766,1.946,8.786
			c0.828-3.948,0.704-8.091-0.359-11.982c0.912,1.736,1.824,3.472,2.736,5.207c-0.672-7.967-4.493-15.625-10.454-20.954
			c2.458,4.071,3.951,8.721,4.324,13.462c-1.368-4.438-4.03-8.469-7.575-11.47c3.461,5.15,5.666,11.138,6.373,17.302
			c-1.375-2.351-2.603-5.104-4.307-7.205c0.835,4.389,2.254,8.459,2.479,13.011C249.542,280.666,249.102,285.221,247.987,289.609z"
			/>
	</g>
	<g>
		<path d="M130.8,257.954c-2.476-1.331-4.895-2.719-7.111-4.46c-2.198-1.727-4.201-3.741-5.923-5.942
			c-0.073-0.093-0.357,0.205-0.278,0.32c3.125,4.595,7.634,8.674,12.904,10.614C130.568,258.552,130.968,258.045,130.8,257.954z"/>
		<path d="M125.236,257.703c-4.066-2.395-7.41-5.847-9.434-10.135c-0.072-0.152-0.401,0.181-0.35,0.315
			c1.667,4.447,4.992,8.307,9.297,10.381C124.972,258.372,125.43,257.818,125.236,257.703z"/>
		<path d="M119.556,255.605c-3.897-2.928-6.834-7.038-8.181-11.737c-0.045-0.155-0.391,0.18-0.361,0.325
			c0.994,4.867,3.831,9.289,7.966,12.075C119.227,256.435,119.782,255.775,119.556,255.605z"/>
		<path d="M104.496,255.78c-0.679-1.68-1.341-3.325-1.796-5.084c-0.447-1.728-0.708-3.527-0.741-5.312
			c-0.003-0.155-0.259,0.091-0.267,0.184c-0.308,3.622,0.179,7.655,2.142,10.797C104.02,256.662,104.6,256.037,104.496,255.78z"/>
		<path d="M123.479,196.462c-1.663-2.283-2.729-5.004-2.538-7.86c0.011-0.166-0.287,0.098-0.3,0.207
			c-0.347,2.905,0.338,6.033,2.322,8.248C123.126,197.24,123.634,196.675,123.479,196.462z"/>
		<path d="M119.766,193.899c-0.067-1.997,0.116-4.013,0.57-5.959c0.06-0.258-0.305,0.028-0.34,0.159
			c-1.045,3.9-1.106,8.359,0.346,12.173c0.081,0.212,0.523-0.235,0.472-0.422C120.278,197.888,119.835,195.939,119.766,193.899z"/>
		<path d="M118.326,193.797c0.13-2.005,0.562-4.022,1.173-5.934c0.076-0.237-0.269,0.011-0.31,0.107
			c-0.805,1.886-1.214,3.824-1.242,5.876c-0.028,2.083,0.163,4.283,0.836,6.264c0.041,0.121,0.313-0.144,0.284-0.257
			C118.546,197.852,118.191,195.874,118.326,193.797z"/>
		<path d="M118.167,186.919c-0.686,0.813-1.182,1.779-1.387,2.826c-0.228,1.163-0.241,2.349-0.163,3.527
			c0.016,0.239,0.377-0.137,0.391-0.267c0.121-1.105,0.18-2.223,0.424-3.311c0.206-0.918,0.477-1.864,0.993-2.66
			C118.61,186.747,118.346,186.707,118.167,186.919z"/>
	</g>
	<path style="opacity:0.77;fill:#B7AEC2;" d="M104.657,201.381c5.171,0.445,10.402,0.311,15.543-0.399
		c2.359-0.326,4.703-0.776,7.007-1.38c2.914-0.764,5.616-1.907,8.284-3.293c2.02-1.05,4.08-2.191,6.368-2.506
		c2.875-0.396,5.466,0.636,8.072,1.704c5.021,2.056,10.392,3.17,15.804,3.462c11.199,0.604,22.485-2.187,32.479-7.167
		c0.385-0.192,0.764-0.394,1.146-0.593c-0.896-6.359-2.822-14.672-6.96-21.051c-28.063-1.29-92.899,2.581-108.382,9.354
		c0,0-4.278,3.716-7.143,10.574C84.249,197.325,94.517,200.508,104.657,201.381z"/>
	<path style="opacity:0.77;fill:#B7AEC2;" d="M87.061,190.35c8.692,3.379,18.081,4.989,27.402,4.423
		c8.984-0.545,17.751-3.181,25.529-7.691c-3.41,0.003-6.814-0.046-10.212-0.38c-0.374-0.037-0.138-1.049,0.214-1.051
		c3.807-0.029,7.653,0.097,11.425-0.512c1.792-0.289,3.555-0.756,5.224-1.478c0.858-0.371,1.684-0.808,2.478-1.301
		c0.496-0.309,0.733-0.183,1.306-0.076c0.473,0.088,0.946,0.174,1.42,0.259c3.769,0.671,7.563,1.199,11.382,1.483
		c3.682,0.274,7.42,0.422,11.098,0.029c7.091-0.757,13.729-3.415,20.475-5.553c0.472-0.15,0.947-0.294,1.42-0.439
		c-0.999-2.772-2.249-5.479-3.823-7.905c-28.063-1.29-92.899,2.581-108.382,9.354c0,0-2.776,2.416-5.353,6.938
		C81.393,187.909,84.196,189.236,87.061,190.35z"/>
	<path style="opacity:0.77;fill:#B7AEC2;" d="M139.482,262.033c-2.191-2.25-3.728-5.13-4.378-8.203
		c1.391,2.149,3.22,4.013,5.341,5.446c-1.06-3.135-2.121-6.27-3.181-9.405c1.97,1.925,3.94,3.85,5.91,5.775
		c-4.213-4.867-6.754-11.156-7.105-17.583c-1.173,3.54-1.73,7.283-1.641,11.011c-1.282-2.88-2.839-5.638-4.642-8.224
		c-0.116,3.177,0.296,6.373,1.213,9.417c-1.276-2.327-2.512-4.686-3.847-6.977C123.463,251.786,134.82,257.244,139.482,262.033z"/>
	<path style="fill:#F89200;" d="M191.568,173.294c1.082,3.125,1.799,6.368,2.408,9.615c1.138,6.059,2.073,12.164,3.58,18.147
		c1.324,5.256,3.145,10.378,5.594,15.218c2.597,5.133,5.874,9.801,9.388,14.338c3.808,4.916,7.103,11.566,10.807,16.554
		c0.96-0.326,1.838-0.787,2.64-1.363c-1.587-2.431-5.936-9.196-10.361-14.359c-6.774-10.645-9.999-12.903-9.999-12.903
		l-5.484-17.741c0,0,0-18.709-7.742-30.644c-0.681-0.031-1.391-0.059-2.114-0.084C190.776,171.12,191.189,172.202,191.568,173.294z"
		/>
	<g>
		<g>
			<g>
				<path style="fill:#F89200;" d="M155.519,28.278c0,0,2.856-6.249,7.141-13.926c4.285-7.677,21.96-10.533,34.279,2.321
					c-4.999-2.142-6.963,0.357-6.963,0.357s10.89-1.25,14.997,10.891c-2.857-1.428-3.928-1.785-3.928-1.785s5.713,3.749,6.963,9.105
					c-2.678-2.678-4.285-4.463-4.285-4.463s5.713,8.927,4.999,17.675c-1.071-3.035-2.856-4.999-2.856-4.999
					s4.82,13.747-5.535,28.565C196.403,56.665,182.835,37.562,155.519,28.278z"/>
				<path style="fill:#B26602;" d="M200.331,72.383c-0.022,0-0.044-0.002-0.065-0.006c-0.139-0.025-0.252-0.13-0.287-0.268
					c-1.862-7.28-10.582-31.933-44.577-43.487c-0.097-0.033-0.176-0.106-0.217-0.2c-0.041-0.094-0.039-0.202,0.004-0.295
					c0.028-0.063,2.912-6.35,7.155-13.952c1.897-3.401,6.242-5.843,11.619-6.532c8.269-1.063,16.956,2.222,23.239,8.779
					c0.12,0.124,0.136,0.316,0.037,0.458c-0.099,0.143-0.284,0.195-0.442,0.127c-2.966-1.271-4.774-0.858-5.718-0.367
					c2.961,0.073,10.879,1.232,14.239,11.164c0.047,0.14,0.006,0.294-0.106,0.391c-0.111,0.097-0.268,0.117-0.402,0.051
					c-0.51-0.255-0.962-0.476-1.361-0.666c1.794,1.628,4.147,4.293,4.913,7.578c0.037,0.158-0.036,0.322-0.177,0.4
					c-0.142,0.079-0.32,0.054-0.435-0.061c-0.895-0.895-1.673-1.694-2.312-2.36c1.659,3.32,4.133,9.394,3.647,15.344
					c-0.014,0.171-0.146,0.309-0.316,0.332c-0.167,0.022-0.332-0.078-0.389-0.24c-0.494-1.4-1.149-2.572-1.699-3.416
					c0.899,4.264,2.101,15.404-6.05,27.07C200.56,72.326,200.449,72.383,200.331,72.383z M156.019,28.065
					c32.919,11.345,42.19,34.925,44.459,43.095c4.912-7.331,6.056-14.324,6.139-18.954c0.092-5.172-1.084-8.598-1.095-8.632
					c-0.058-0.163,0.008-0.344,0.157-0.433c0.149-0.089,0.338-0.06,0.455,0.068c0.062,0.068,1.258,1.399,2.285,3.56
					c-0.063-7.973-4.949-15.712-5.002-15.795c-0.102-0.16-0.065-0.371,0.085-0.486c0.152-0.114,0.364-0.095,0.491,0.046
					c0.014,0.016,1.209,1.34,3.218,3.386c-1.748-4.404-6.315-7.447-6.366-7.48c-0.152-0.1-0.207-0.298-0.127-0.463
					c0.079-0.164,0.262-0.242,0.442-0.187c0.04,0.014,0.919,0.311,3.164,1.405c-4.155-10.818-13.881-9.851-14.308-9.804
					c-0.136,0.016-0.287-0.056-0.358-0.184c-0.072-0.128-0.06-0.286,0.031-0.402c0.079-0.099,1.77-2.169,5.829-1.025
					c-6.008-5.625-13.915-8.379-21.463-7.416c-5.15,0.661-9.291,2.965-11.077,6.165C159.331,21.063,156.693,26.62,156.019,28.065z"
					/>
			</g>
			<g>
				<path style="fill:#F89200;" d="M208.008,35.241c-0.49-2.099-1.666-3.946-2.915-5.423c-0.196,0.575-0.424,1.146-0.686,1.702
					C205.118,32.284,206.357,33.591,208.008,35.241z"/>
				<path style="fill:#B26602;" d="M208.008,35.605c-0.094,0-0.188-0.036-0.258-0.107c-1.614-1.615-2.854-2.92-3.609-3.729
					c-0.101-0.109-0.126-0.269-0.063-0.403c0.249-0.529,0.475-1.089,0.672-1.665c0.042-0.124,0.148-0.216,0.277-0.24
					c0.123-0.024,0.26,0.022,0.345,0.123c1.55,1.833,2.556,3.709,2.992,5.576c0.037,0.158-0.036,0.322-0.177,0.4
					C208.129,35.589,208.068,35.605,208.008,35.605z M204.84,31.451c0.571,0.61,1.374,1.455,2.372,2.47
					c-0.447-1.127-1.114-2.256-1.995-3.376C205.099,30.853,204.973,31.156,204.84,31.451z"/>
			</g>
			<g>
				<path d="M203.723,30.777c0,0,1.607,1.785,4.285,4.463c-1.25-5.356-6.963-9.105-6.963-9.105s1.071,0.357,3.928,1.785
					c-4.106-12.14-14.997-10.891-14.997-10.891s1.964-2.5,6.963-0.357c-12.319-12.854-29.994-9.998-34.279-2.321
					c-0.502,0.9-0.983,1.777-1.443,2.63c3.278-1.165,8.392-2.057,13.252,0.927c7.562,4.643,11.638,13.731,10.048,27.739
					c8.611,8.43,13.663,17.962,15.814,26.371c10.355-14.818,5.535-28.565,5.535-28.565s1.785,1.964,2.856,4.999
					C209.436,39.704,203.723,30.777,203.723,30.777z"/>
			</g>
			<g>
				<g>
					<path style="fill:#D26B9D;" d="M195.463,30.487c-4.355-6.613-9.516-9.354-9.999-1.774c-0.322,5.042-0.786,12.434-1.061,16.822
						c7.504,7.311,12.318,15.458,14.881,22.991C203.888,54.008,199.41,36.482,195.463,30.487z"/>
					<path style="fill:#933868;" d="M199.283,68.89c-0.155,0-0.295-0.099-0.345-0.247c-1.959-5.758-6.115-14.396-14.791-22.848
						c-0.076-0.074-0.116-0.178-0.109-0.283l0.036-0.579c0.278-4.437,0.717-11.417,1.025-16.244c0.18-2.821,1-4.446,2.438-4.827
						c2.092-0.556,5.252,1.905,8.229,6.424l0,0c3.654,5.549,8.717,23.046,3.863,38.349c-0.047,0.15-0.186,0.252-0.343,0.254
						C199.286,68.89,199.284,68.89,199.283,68.89z M184.775,45.392c8.184,8.013,12.369,16.188,14.481,21.963
						c4.019-14.167-0.377-31.017-4.097-36.668l0,0c-2.757-4.185-5.678-6.591-7.435-6.121c-1.085,0.288-1.742,1.73-1.898,4.17
						c-0.307,4.826-0.745,11.806-1.024,16.243L184.775,45.392z"/>
				</g>
			</g>
			<g>
				<path style="fill:#D26B9D;" d="M194.528,47.919c-2.2-6.204-5.273-12.147-9.176-17.468c-0.311,4.891-0.705,11.177-0.95,15.084
					c6.579,6.41,11.09,13.462,13.829,20.18C197.818,59.651,196.557,53.64,194.528,47.919z"/>
			</g>
			<path style="opacity:0.77;fill:#B7AEC2;" d="M204.296,31.751c-0.615,1.241-1.422,2.382-2.527,3.232
				c-4.603,3.542-10.807-0.674-14.604-3.394c-4.908-3.516-9.901-7.117-15.559-9.338c-2.664-1.046-5.499-1.753-8.366-1.871
				c-1.298-0.053-2.607-0.006-3.899,0.147c-2.374,4.584-3.823,7.749-3.823,7.749c27.316,9.284,40.884,28.387,44.812,43.741
				c10.355-14.818,5.535-28.565,5.535-28.565s1.785,1.964,2.856,4.999C209.296,41.422,205.723,34.287,204.296,31.751z"/>
		</g>
		<g>
			<g>
				<path style="fill:#F89200;" d="M70.316,60.708c0,0,10.629-22.981,24.992-28.439c2.298-15.799,15.799-26.715,25.566-26.715
					c-10.916,6.032-13.501,12.065-13.501,12.065s23.268-13.501,39.642-0.862c-10.054-2.585-27.29,3.447-27.29,3.447
					s6.607-1.724,11.203,1.149c8.905-0.575,29.875,5.745,34.471,9.192c8.331-3.447,35.046,14.363,37.057,38.78
					c10.341,3.447,16.087,10.341,33.897,10.054c-3.447,2.298-6.607,2.011-6.607,2.011s12.927,9.48,15.512,27.002
					c-3.16-3.16-8.618-7.756-8.618-7.756s13.788,11.49-4.022,40.791c3.16-8.905,2.873-13.789,2.873-13.789
					s-3.447,10.054-8.331,16.087c1.436-3.447,0.862-6.033,0.862-6.033s-6.033,11.49-16.087,17.523
					c0.862-4.309,0.575-7.182,0.575-7.182s-1.724,3.16-6.607,7.756c-5.458,24.13-33.609,30.162-66.357,20.683
					c2.585,2.585,2.585,2.585,2.585,2.585s-12.352,3.734-25.279,1.149c3.734,3.16,8.331,4.596,8.331,4.596
					s-48.26,11.49-58.314-18.672c-0.287,7.756,4.309,16.086,4.309,16.086s-22.119-13.501-24.13-34.471
					c-3.734,8.905-2.298,16.948-2.298,16.948s-8.474-9.623-0.574-23.148c-6.703,3.83-10.892,7.062-10.892,7.062
					s-5.071-5.548,12.025-20.063c0,0-23.87,1.935-30.644-16.128c-1.29,4.193,1.613,8.387,1.613,8.387S5.453,107.549,7.922,95.206
					c-2.351,1.646-2.586,3.409-2.586,3.409s-0.353-6.7,5.172-12.343c-4.349,2.586-5.172,4.702-5.172,4.702
					s-0.186-12.103,11.91-18.877C10.149,71.291,4.827,76.13,4.827,76.13s15.644-35.643,41.772-24.031
					C62.727,62.421,70.316,60.708,70.316,60.708z"/>
				<path style="fill:#B26602;" d="M105.3,187.251c-14.089,0-31.559-3.421-38.031-19.006c0.474,6.914,4.186,13.723,4.227,13.799
					c0.08,0.144,0.052,0.324-0.067,0.438c-0.119,0.116-0.3,0.134-0.44,0.048c-0.218-0.133-21.282-13.209-24.131-33.301
					c-2.984,8.157-1.763,15.328-1.75,15.404c0.029,0.161-0.053,0.321-0.2,0.392c-0.151,0.07-0.323,0.034-0.431-0.087
					c-0.084-0.096-8.079-9.421-1.257-22.416c-5.944,3.482-9.675,6.347-9.714,6.377c-0.151,0.115-0.364,0.098-0.491-0.043
					c-0.038-0.041-0.92-1.032-0.784-3.17c0.193-3.057,2.463-8.417,12.045-16.733c-4.625,0.092-23.086-0.463-29.508-15.308
					c-0.482,3.579,1.784,6.916,1.809,6.952c0.111,0.16,0.075,0.38-0.081,0.498c-0.154,0.116-0.377,0.09-0.5-0.061
					c-0.107-0.131-10.366-12.862-8.595-24.959c-1.505,1.33-1.704,2.576-1.707,2.59c-0.027,0.185-0.189,0.305-0.377,0.312
					c-0.187-0.008-0.336-0.156-0.346-0.343c-0.013-0.247-0.235-5.456,3.549-10.59c-2.3,1.764-2.841,3.047-2.848,3.063
					c-0.065,0.161-0.227,0.252-0.405,0.223c-0.17-0.032-0.295-0.178-0.297-0.351C4.97,90.86,4.926,79.274,16.055,72.378
					c-6.284-0.173-10.934,3.977-10.984,4.022c-0.127,0.115-0.318,0.126-0.457,0.026c-0.139-0.1-0.189-0.284-0.121-0.441
					c0.022-0.048,2.153-4.864,6.062-10.312c3.617-5.04,9.541-11.671,17.227-14.648c6.133-2.375,12.512-2.125,18.965,0.742
					c14.522,9.289,22.123,8.77,23.322,8.614c0.486-1.017,3.07-6.294,7.058-12.052c4.056-5.854,10.431-13.411,17.852-16.322
					c2.339-15.363,15.56-26.816,25.895-26.816c0.166,0,0.311,0.112,0.352,0.273c0.042,0.16-0.031,0.329-0.176,0.409
					c-8,4.42-11.494,8.872-12.75,10.842c4.858-2.467,24.602-11.309,38.936-0.245c0.136,0.106,0.18,0.293,0.104,0.448
					c-0.076,0.156-0.25,0.235-0.418,0.193c-6.915-1.779-17.412,0.616-23.091,2.214c2.19-0.044,4.907,0.273,7.189,1.66
					c9.004-0.518,29.58,5.725,34.431,9.151c3.057-1.118,8.235,0.272,13.933,3.75c9.917,6.055,21.964,18.885,23.413,35.172
					c3.065,1.043,5.786,2.409,8.418,3.73c6.296,3.16,12.777,6.434,25.13,6.229c0.184,0.01,0.306,0.101,0.353,0.256
					c0.047,0.154-0.011,0.321-0.146,0.411c-2.346,1.563-4.548,1.968-5.793,2.06c2.88,2.433,12.654,11.67,14.856,26.597
					c0.023,0.155-0.057,0.307-0.196,0.378c-0.138,0.071-0.31,0.045-0.421-0.068c-1.648-1.648-3.945-3.707-5.75-5.286
					c0.919,1.549,1.876,3.729,2.415,6.614c1.125,6.025,0.524,16.405-8.737,31.639c-0.098,0.16-0.3,0.218-0.467,0.14
					c-0.169-0.08-0.249-0.275-0.187-0.45c1.868-5.264,2.522-9.13,2.745-11.377c-1.309,3.319-4.089,9.717-7.578,14.025
					c-0.114,0.141-0.312,0.177-0.469,0.084c-0.155-0.093-0.219-0.286-0.149-0.453c0.822-1.974,0.962-3.665,0.942-4.706
					c-1.748,2.963-7.372,11.685-15.644,16.649c-0.124,0.075-0.279,0.068-0.397-0.015c-0.117-0.083-0.175-0.228-0.148-0.369
					c0.524-2.618,0.618-4.711,0.613-5.923c-0.873,1.281-2.71,3.69-5.958,6.757c-1.935,8.438-6.634,14.91-13.965,19.238
					c-12.127,7.159-30.365,7.856-51.475,1.987l1.597,1.596c0.09,0.091,0.126,0.223,0.095,0.346c-0.03,0.124-0.125,0.223-0.247,0.26
					c-0.119,0.036-11.668,3.458-24.002,1.422c3.37,2.455,7.016,3.615,7.057,3.628c0.156,0.048,0.26,0.196,0.255,0.359
					c-0.006,0.164-0.12,0.304-0.28,0.342C125.06,185.208,116.189,187.25,105.3,187.251z M66.869,165.769
					c0.154,0,0.295,0.098,0.345,0.249c8.939,26.814,49.057,20.205,56.646,18.695c-1.632-0.644-4.625-2.012-7.243-4.227
					c-0.127-0.107-0.165-0.286-0.093-0.436c0.073-0.15,0.241-0.228,0.399-0.199c11.096,2.221,21.899-0.289,24.509-0.977
					l-2.144-2.143c-0.116-0.118-0.14-0.299-0.056-0.442c0.085-0.143,0.249-0.21,0.415-0.165c21.173,6.129,40.217,5.571,52.25-1.533
					c7.183-4.241,11.776-10.593,13.65-18.88c0.016-0.071,0.053-0.135,0.106-0.185c4.773-4.493,6.52-7.634,6.537-7.665
					c0.077-0.14,0.237-0.214,0.391-0.182c0.156,0.032,0.274,0.162,0.29,0.32c0.011,0.112,0.249,2.62-0.427,6.475
					c9.435-6.012,15.196-16.838,15.255-16.949c0.071-0.135,0.224-0.21,0.37-0.191c0.151,0.02,0.274,0.133,0.307,0.281
					c0.019,0.087,0.367,1.726-0.192,4.127c4.094-5.935,6.931-14.13,6.962-14.22c0.057-0.164,0.217-0.268,0.393-0.243
					c0.172,0.024,0.304,0.166,0.314,0.339c0.01,0.176,0.196,3.875-1.829,10.675c7.476-13.395,7.949-22.62,6.937-28.119
					c-1.169-6.356-4.521-9.229-4.555-9.258l0,0c-0.001,0-0.001,0-0.001-0.001c-0.154-0.129-0.173-0.358-0.045-0.512
					c0.13-0.154,0.358-0.174,0.512-0.046c0,0.001,0.001,0.001,0.001,0.001l0,0c0.05,0.042,4.668,3.936,7.848,6.999
					c-2.892-16.475-15.066-25.583-15.191-25.675c-0.132-0.097-0.183-0.269-0.125-0.422c0.058-0.154,0.228-0.248,0.372-0.234
					c0.027,0.004,2.41,0.19,5.231-1.277c-11.636-0.048-17.977-3.232-24.118-6.314c-2.798-1.404-5.441-2.731-8.549-3.767
					c-0.138-0.046-0.236-0.171-0.248-0.315c-1.328-16.129-13.267-28.854-23.087-34.85c-5.538-3.381-10.698-4.771-13.468-3.624
					c-0.117,0.049-0.255,0.033-0.357-0.045c-4.481-3.36-25.289-9.69-34.229-9.12c-0.075,0.008-0.152-0.014-0.217-0.054
					c-4.406-2.754-10.853-1.122-10.917-1.105c-0.194,0.05-0.383-0.06-0.439-0.246c-0.057-0.187,0.043-0.385,0.227-0.45
					c0.671-0.234,15.69-5.427,25.812-3.804c-15.899-10.623-37.638,1.748-37.861,1.877c-0.136,0.079-0.307,0.061-0.424-0.042
					c-0.118-0.104-0.154-0.271-0.093-0.416c0.103-0.24,2.54-5.722,12.319-11.476c-9.821,1.045-21.601,11.958-23.69,26.322
					c-0.019,0.13-0.107,0.241-0.231,0.287c-14.061,5.344-24.685,28.023-24.79,28.251c-0.048,0.103-0.14,0.178-0.25,0.202
					c-0.317,0.072-7.921,1.627-23.993-8.658c-6.22-2.759-12.412-3.005-18.359-0.703C15.933,56.393,8.073,70.425,5.824,74.894
					c2.002-1.4,6.248-3.751,11.462-3.157c0.157,0.018,0.285,0.135,0.315,0.289c0.031,0.155-0.041,0.312-0.178,0.389
					C8.024,77.679,6.159,86.312,5.79,89.621c0.734-0.898,2.093-2.211,4.532-3.661c0.157-0.093,0.359-0.056,0.472,0.088
					c0.113,0.144,0.101,0.349-0.027,0.479c-3.606,3.684-4.655,7.867-4.954,10.215c0.407-0.569,1.011-1.211,1.9-1.833
					c0.122-0.086,0.283-0.087,0.407-0.007c0.124,0.081,0.187,0.23,0.158,0.376c-1.705,8.521,3.108,17.598,6.097,22.214
					c-0.426-1.502-0.628-3.332-0.059-5.181c0.045-0.149,0.181-0.252,0.336-0.257c0.133,0.001,0.296,0.09,0.352,0.236
					c6.597,17.596,30.038,15.911,30.274,15.894c0.158-0.015,0.305,0.078,0.366,0.223c0.061,0.146,0.02,0.314-0.1,0.416
					c-10.006,8.495-12.366,13.85-12.583,16.845c-0.091,1.245,0.207,2.034,0.412,2.418c1.096-0.815,5-3.642,10.622-6.854
					c0.144-0.083,0.324-0.057,0.44,0.06c0.116,0.117,0.138,0.297,0.056,0.439c-4.009,6.862-3.653,12.669-2.649,16.333
					c0.661,2.411,1.681,4.239,2.388,5.31c-0.228-2.708-0.343-9.028,2.483-15.767c0.063-0.154,0.216-0.244,0.39-0.219
					c0.165,0.025,0.291,0.159,0.307,0.325c1.709,17.82,18.314,30.354,22.83,33.45c-1.254-2.627-3.958-9.032-3.735-15.045
					c0.007-0.176,0.138-0.322,0.313-0.347C66.835,165.77,66.852,165.769,66.869,165.769z M70.315,60.708h0.008H70.315z"/>
			</g>
		</g>
		<path style="opacity:0.77;fill:#B7AEC2;" d="M149.316,77.582c5.57,11.106,7.881,23.513,10.13,35.733
			c7.973-0.618,15.906-1.759,23.73-3.414c2.178-0.461,4.6-1.142,5.681-3.089c1.451-2.613-0.464-5.953-2.985-7.557
			c-2.521-1.605-5.575-2.183-8.156-3.689c-5.526-3.225-7.817-9.905-9.681-16.026c-3.888-12.764-7.697-26.957-1.995-39.021
			c8.72,18.306,17.472,36.672,28.485,53.697c4.296,6.642,9.133,14.579,6.166,21.912c-2.67,6.598-10.419,9.317-17.356,10.914
			c-8.759,2.016-18.56,3.3-26.226-1.392c-5.668-3.469-9.136-9.683-11.105-16.03c-1.968-6.347-2.674-13.011-4.237-19.47
			c-1.551-6.408-3.966-12.604-7.133-18.385c-1.543-2.817-18.287-15.902-17.542-18.488c1.227-4.258,19.143,7.431,20.871,9.011
			C142.671,66.591,146.462,71.891,149.316,77.582z"/>
		<g>
			<path d="M58.555,102.211c-0.815-4.728-10.292,2.956-8.966-21.518c0.38-7.016-5.706-16.954-7.173-24.778
				c-0.486-2.591,0.104-4.105,1.105-4.978C19.249,43.284,4.827,76.13,4.827,76.13s5.322-4.838,12.419-4.032
				C5.15,78.872,5.336,90.975,5.336,90.975s0.823-2.116,5.172-4.702c-5.525,5.643-5.172,12.343-5.172,12.343
				s0.235-1.763,2.586-3.409c-2.468,12.343,8.356,25.599,8.356,25.599s-2.903-4.193-1.613-8.387
				c6.774,18.064,30.644,16.128,30.644,16.128C58.471,123.583,59.37,106.938,58.555,102.211z"/>
		</g>
		<path style="opacity:0.77;fill:#B7AEC2;" d="M35.92,65.466c6.756,1.656,11.92,7.025,16.204,12.505
			c4.283,5.48,8.24,11.461,14.053,15.28c-0.98,0.364-1.961,0.728-2.941,1.092c4.041,3.52,4.442,9.846,2.639,14.893
			c-3.705,10.373-15.553,16.752-26.463,15.231c-10.909-1.521-20.195-10.114-23.72-20.549C11.309,90.945,15.666,60.5,35.92,65.466z"
			/>
		<g>
			<path style="fill:#FFFFFF;" d="M236.639,100.637c0,0,5.458,4.596,8.618,7.756c-2.585-17.523-15.512-27.002-15.512-27.002
				s3.16,0.287,6.607-2.011c-13.046,0.21-19.618-3.432-26.265-6.751c0.932,2.821,2.286,7.071,3.708,12.048
				c15.913,11.397,12.688,34.837,1.075,46.879c13.118-25.805-7.742-32.041-21.504-36.342c9.032-2.58,10.107-9.247,10.107-9.247
				s0.215,3.226-4.301,8.817c11.612-7.742,8.817-21.934,2.581-22.365c-5.806-34.407-33.332-37.848-36.665-30.106
				c-3.333,7.742,5.699,28.601,9.999,45.804c2.796,0.645,7.312,2.796,7.312,2.796c10.322,5.376,18.279,14.623,17.418,16.128
				c-11.182,9.247-18.157,11.276-28.262,10.178c-10.105-1.098-8.567,5.382-8.567,5.382s-6.26-2.307-8.347-6.48
				c-2.087-4.174-5.789-7.574-4.821-11.122c0.968-3.548,1.613-6.129-3.548-23.87c-6.451-19.999-27.741-31.611-44.191-25.483
				C83.371,63.389,80.791,82.42,86.92,100.483c6.129,18.064,40.966,14.838,54.836,12.58c-36.772,21.934-31.611,33.869-21.612,45.159
				c-20.322-1.613-40.966-9.999-42.579-21.612c-1.613-11.612-12.58-14.838-13.225-26.773c-5.924,10.01-18.183,19.886-26.626,26.114
				c-7.731,9.037-4.43,12.658-4.43,12.658s4.189-3.232,10.892-7.062c-7.9,13.525,0.574,23.148,0.574,23.148
				s-1.436-8.043,2.298-16.948c2.011,20.97,24.13,34.471,24.13,34.471s-4.596-8.331-4.309-16.086
				c10.054,30.162,58.314,18.672,58.314,18.672s-4.596-1.436-8.331-4.596c12.927,2.585,25.279-1.149,25.279-1.149s0,0-2.585-2.585
				c32.747,9.48,60.899,3.447,66.357-20.683c4.883-4.596,6.607-7.756,6.607-7.756s0.287,2.873-0.574,7.182
				c10.054-6.032,16.086-17.523,16.086-17.523s0.575,2.585-0.862,6.033c4.883-6.033,8.331-16.087,8.331-16.087
				s0.287,4.883-2.873,13.788C250.428,112.128,236.639,100.637,236.639,100.637z"/>
		</g>
		<path style="opacity:0.77;fill:#B7AEC2;" d="M172.432,59.426c2.658-5.298,9.526-7.751,15.211-6.074
			c5.685,1.677,9.945,6.884,11.322,12.649c0.493,2.066,0.701,4.304,1.976,6.003c1.275,1.699,4.176,2.396,5.445,0.691
			c-0.254,3.379-3.879,6.083-7.19,5.364c0.973,4.325-0.595,9.126-3.932,12.044c-5.477,4.788-13.473,3.556-17.988-1.811
			c-1.565-1.861-2.332-3.673-2.793-6.03c-0.688-3.513-1.779-6.884-2.598-10.364C170.926,67.826,170.491,63.293,172.432,59.426z"/>
		<path style="opacity:0.77;fill:#B7AEC2;" d="M99.198,95.289c1.625-3.752,1.473-8.027,2.582-11.963
			c1.743-6.187,6.808-11.328,12.968-13.163c6.16-1.836,13.213-0.305,18.058,3.919c10.11,8.813,8.673,25.421,16.94,35.984
			c-7.499,0.711-14.998,1.422-22.496,2.133c-4.699,0.446-9.521,0.881-14.073-0.364c-4.553-1.245-8.85-4.554-9.876-9.161
			c0.197,0.882-10.987-0.703-12.152-1.831C94.643,100.656,97.764,98.6,99.198,95.289z"/>
		<path style="opacity:0.77;fill:#B7AEC2;" d="M177.055,134.585c0.649,2.238-1.62,4.193-3.687,5.268
			c-15.221,7.915-35.53,4.406-47.213-8.157c1.748,9.879,8.327,18.784,17.256,23.359c8.929,4.574,20,4.711,29.039,0.359
			c5.562-2.678,10.706-7.774,10.605-13.947c1.875,2.728,5.614,3.723,8.859,3.067c3.245-0.656,6.051-2.685,8.436-4.981
			c4.511-4.345,6.678-7.039,7.673-13.223c0.995-6.184,2.066-13.651-2.271-18.17c-0.714,8.2-0.401,11.692-2.795,19.567
			c-0.96,3.157-6.225,9.327-9.522,9.21c-2.734-0.097-4.615-3.156-4.377-5.881c0.238-2.725,1.985-5.069,3.837-7.082
			c1.852-2.013,3.92-3.922,5.072-6.403c0.861-1.853,1.008-4.371-0.588-5.646c-2.075-1.658-5.042,0.014-7.29,1.43
			c-3.48,2.192-7.351,3.743-11.366,4.622c-3.118,0.682-12.303-0.947-14.829,1.171C156.306,125.507,175.703,129.919,177.055,134.585z
			"/>
		<path d="M147.986,107.747c0,0-5.76,0.311-9.963,1.712c-4.203,1.401-21.482,6.227-33.157-7.472
			c-1.09-1.09-7.472,0.778-11.052-0.778c6.071-1.401,7.783-2.958,7.783-2.958s-2.335-21.793,11.052-26.152
			c13.387-4.359,21.326,6.849,24.906,14.01c3.58,7.161,5.448,17.902,5.448,17.902S146.896,106.19,147.986,107.747z"/>
		<path d="M176.849,88.216c0,0-12.024-30.18,4.582-33.536c11.627-2.35,17.902,15.483,18.386,19.676
			c4.193,0.161,5.322-0.645,5.322-0.645s0.266,1.926-6.831,3.539c1.346,9.869-6.122,14.079-7.925,14.654
			C183.406,94.128,176.849,88.216,176.849,88.216z"/>
		<path style="fill:#C2C1C9;" d="M177.382,88.086c0,0-2.719-6.302-2.966-16.064c-0.247-9.762,3.707-13.346,9.886-12.728
			c6.179,0.618,13.365,11.405,13.222,19.524C197.404,85.614,189.616,97.601,177.382,88.086z"/>
		<path style="fill:#FFFFFF;" d="M177.549,87.459c0,0-2.584-5.99-2.819-15.268c-0.235-9.278,3.523-12.684,9.396-12.097
			c5.872,0.587,12.703,10.84,12.567,18.557C196.579,85.109,189.176,96.503,177.549,87.459z"/>
		<path d="M139.762,43.607c0,0-7.663-10.52-14.806-10.65c-7.143-0.13-27.403,5.844-38.832,23.637
			C100.54,44.776,125.605,35.165,139.762,43.607z"/>
		<path d="M127.885,29.842c0,0-31.934-0.323-43.385,25.16c0,0,1.29-14.354,14.031-21.934
			C111.273,25.487,118.047,24.681,127.885,29.842z"/>
		<path d="M131.111,28.39c0,0,5.806-3.871,19.676-3.387c-9.677-3.226-28.639-1.107-27.902,0
			C123.208,25.487,131.111,28.39,131.111,28.39z"/>
		<path style="fill:#C2C1C9;" d="M140.98,102.921c0,0-1.401-21.482-16.812-26.619c-10.274-3.736-17.902,8.406-19.147,17.279
			c-1.245,8.873,7.783,16.189,19.302,16.345C135.844,110.082,141.447,106.19,140.98,102.921z"/>
		<path style="fill:#FFFFFF;" d="M140.192,101.859c0,0-1.309-20.071-15.708-24.871c-9.599-3.491-16.726,7.854-17.889,16.144
			c-1.164,8.29,7.272,15.126,18.035,15.271C135.393,108.549,140.628,104.913,140.192,101.859z"/>
		<g>
			<defs>
				<path id="SVGID_1_" d="M140.98,102.921c0,0-1.401-21.482-16.812-26.619c-10.274-3.736-17.902,8.406-19.147,17.279
					c-1.245,8.873,7.783,16.189,19.302,16.345C135.844,110.082,141.447,106.19,140.98,102.921z"/>
			</defs>
			<clipPath id="SVGID_00000036964448789178285450000005476245755600638370_">
				<use xlink:href="#SVGID_1_"  style="overflow:visible;"/>
			</clipPath>
			<g style="clip-path:url(#SVGID_00000036964448789178285450000005476245755600638370_);">
				<path style="fill:#411F00;" d="M120.174,98.259c5.091,4.244,11.922,3.784,15.257-1.027c3.335-4.811,1.912-12.151-3.179-16.395
					c-5.091-4.244-11.922-3.784-15.257,1.028C113.66,86.676,115.083,94.016,120.174,98.259z"/>
				<path style="fill:#FF8A00;" d="M120.684,97.436c4.628,3.858,10.838,3.44,13.87-0.934c3.032-4.374,1.738-11.047-2.89-14.905
					c-4.628-3.858-10.838-3.44-13.87,0.934C114.762,86.905,116.056,93.578,120.684,97.436z"/>
				<path d="M121.962,94.612c3.328,2.774,7.792,2.473,9.972-0.671c2.18-3.145,1.25-7.942-2.078-10.716
					c-3.327-2.774-7.792-2.473-9.972,0.672C117.704,87.041,118.635,91.839,121.962,94.612z"/>
				<path style="fill:#F6F6F4;" d="M118.906,93.607c1.097,0.914,2.568,0.815,3.286-0.221c0.718-1.036,0.412-2.617-0.685-3.531
					c-1.096-0.914-2.568-0.815-3.286,0.221C117.503,91.112,117.81,92.693,118.906,93.607z"/>
				<path style="fill:#9C533D;" d="M133.148,93.333c0.301,0.208,0.671,0.201,0.98,0.104c1.568-0.492,1.56-2.628,1.199-4.154
					c-0.318-1.341-1.889-5.598-3.846-4.408c-0.941,0.573,0.114,2.383,0.357,3.277c0.329,1.213,0.562,2.44,0.693,3.665
					c0.023,0.214,0.051,0.442,0.104,0.661C132.721,92.82,132.866,93.138,133.148,93.333z"/>
				<g>
					<path style="fill:#9C533D;" d="M130.64,83.698c-0.03-0.019-0.058-0.048-0.082-0.074c-0.039-0.042-0.063-0.099-0.085-0.151
						c-0.011-0.027-0.021-0.054-0.031-0.082c-0.003-0.007-0.005-0.015-0.008-0.022c-0.002-0.004-0.003-0.009-0.005-0.014
						c-0.007-0.021-0.016-0.059-0.016-0.08c0.002-0.012,0.003-0.024,0.005-0.036c0.002-0.039,0.014-0.073,0.037-0.103
						c0.002-0.003,0.004-0.006,0.006-0.009c0.004-0.006,0.008-0.011,0.012-0.016c0.049-0.062,0.078-0.088,0.146-0.129
						c0.036-0.022,0.077-0.038,0.118-0.048c0.034-0.008,0.072-0.013,0.107-0.017c0.008-0.001,0.015-0.001,0.023-0.001
						c0.015,0,0.033,0.005,0.049,0.005c0.018-0.001,0.027-0.002,0.037-0.003c0.026,0.002,0.054,0.004,0.054,0.004
						c0.001,0,0.084,0.024,0.085,0.025c0,0,0.074,0.041,0.074,0.041c0.003,0.002,0.057,0.055,0.059,0.058
						c0.001,0.001,0.002,0.002,0.002,0.004c0.013,0.015,0.021,0.041,0.032,0.063c0.009,0.006,0.018,0.006,0.027,0.013
						c0.042,0.032,0.081,0.071,0.114,0.114c0.031,0.037,0.048,0.077,0.052,0.121c0.012,0.044,0.011,0.086-0.004,0.127
						c-0.008,0.028-0.027,0.048-0.042,0.071c-0.003,0.02-0.006,0.039-0.008,0.059c-0.012,0.041-0.033,0.076-0.062,0.104
						c-0.017,0.024-0.039,0.044-0.065,0.057c-0.037,0.03-0.079,0.05-0.127,0.061c-0.062,0.014-0.127,0.018-0.193,0.009
						c-0.045-0.006-0.086-0.021-0.126-0.047c-0.015-0.007-0.025-0.021-0.037-0.031c-0.003-0.002-0.007-0.003-0.01-0.004l0.01,0.012
						c-0.007-0.005-0.014-0.011-0.021-0.017c-0.005-0.002-0.01-0.004-0.016-0.006C130.711,83.74,130.675,83.72,130.64,83.698z"/>
					<path style="fill:#6B63AC;" d="M130.952,82.919c-0.018-0.001-0.037-0.002-0.038-0.002
						C130.976,82.917,130.972,82.918,130.952,82.919z"/>
				</g>
			</g>
		</g>
		<g>
			<defs>
				<path id="SVGID_00000074409313463232374280000015674691553740609454_" d="M177.382,88.086c0,0-2.719-6.302-2.966-16.064
					c-0.247-9.762,3.707-13.346,9.886-12.728c6.179,0.618,13.365,11.405,13.222,19.524
					C197.404,85.614,189.616,97.601,177.382,88.086z"/>
			</defs>
			<clipPath id="SVGID_00000094593844905629167420000000735832093494084531_">
				<use xlink:href="#SVGID_00000074409313463232374280000015674691553740609454_"  style="overflow:visible;"/>
			</clipPath>
			<g style="clip-path:url(#SVGID_00000094593844905629167420000000735832093494084531_);">
				<path style="fill:#411F00;" d="M177.311,84.031c5.091,4.244,11.921,3.784,15.257-1.027c3.335-4.811,1.912-12.151-3.179-16.395
					c-5.091-4.244-11.922-3.784-15.257,1.027C170.797,72.448,172.22,79.788,177.311,84.031z"/>
				<path style="fill:#FF8A00;" d="M177.821,83.208c4.628,3.858,10.838,3.44,13.87-0.934c3.032-4.374,1.738-11.047-2.89-14.905
					c-4.628-3.858-10.838-3.44-13.87,0.934C171.899,72.676,173.193,79.35,177.821,83.208z"/>
				<path d="M179.099,80.384c3.328,2.774,7.792,2.473,9.972-0.671c2.18-3.145,1.25-7.942-2.078-10.716
					c-3.328-2.774-7.792-2.473-9.972,0.672C174.841,72.813,175.771,77.611,179.099,80.384z"/>
				<path style="fill:#F6F6F4;" d="M176.043,79.379c1.097,0.914,2.568,0.815,3.286-0.221c0.719-1.036,0.412-2.617-0.685-3.531
					c-1.097-0.914-2.568-0.815-3.286,0.221C174.64,76.884,174.946,78.465,176.043,79.379z"/>
				<path style="fill:#9C533D;" d="M190.285,79.105c0.301,0.208,0.671,0.202,0.98,0.104c1.568-0.492,1.561-2.628,1.199-4.155
					c-0.318-1.341-1.889-5.597-3.845-4.408c-0.941,0.573,0.114,2.383,0.357,3.277c0.329,1.213,0.562,2.44,0.694,3.665
					c0.023,0.214,0.051,0.442,0.104,0.661C189.857,78.592,190.002,78.91,190.285,79.105z"/>
				<g>
					<path style="fill:#9C533D;" d="M187.777,69.47c-0.03-0.019-0.058-0.048-0.082-0.074c-0.039-0.042-0.064-0.099-0.085-0.151
						c-0.011-0.027-0.021-0.054-0.031-0.082c-0.003-0.007-0.005-0.015-0.008-0.022c-0.002-0.004-0.003-0.009-0.005-0.014
						c-0.007-0.021-0.016-0.059-0.016-0.08c0.002-0.012,0.003-0.024,0.005-0.036c0.002-0.039,0.015-0.073,0.037-0.103
						c0.002-0.003,0.004-0.006,0.006-0.009c0.004-0.005,0.008-0.011,0.012-0.016c0.049-0.062,0.078-0.088,0.146-0.129
						c0.036-0.022,0.077-0.038,0.118-0.048c0.034-0.008,0.072-0.013,0.107-0.017c0.008-0.001,0.015-0.001,0.023-0.001
						c0.015,0,0.033,0.005,0.049,0.005c0.018-0.001,0.027-0.002,0.037-0.003c0.026,0.002,0.054,0.003,0.054,0.004
						c0.001,0,0.084,0.024,0.085,0.025c0,0,0.073,0.041,0.074,0.041c0.003,0.002,0.058,0.055,0.059,0.057
						c0.001,0.001,0.002,0.002,0.003,0.004c0.013,0.015,0.021,0.041,0.032,0.063c0.009,0.006,0.018,0.006,0.027,0.013
						c0.042,0.032,0.081,0.071,0.114,0.114c0.031,0.037,0.048,0.077,0.052,0.121c0.012,0.044,0.011,0.086-0.004,0.127
						c-0.008,0.028-0.027,0.048-0.042,0.071c-0.003,0.02-0.006,0.039-0.008,0.059c-0.012,0.042-0.033,0.076-0.062,0.104
						c-0.017,0.024-0.039,0.044-0.065,0.057c-0.037,0.03-0.08,0.05-0.127,0.061c-0.062,0.014-0.127,0.018-0.193,0.009
						c-0.045-0.006-0.086-0.021-0.126-0.047c-0.015-0.007-0.024-0.021-0.037-0.031c-0.004-0.002-0.007-0.003-0.011-0.004l0.01,0.012
						c-0.007-0.005-0.014-0.011-0.021-0.017c-0.005-0.002-0.01-0.004-0.015-0.006C187.848,69.512,187.811,69.492,187.777,69.47z"/>
					<path style="fill:#6B63AC;" d="M188.089,68.691c-0.018-0.001-0.037-0.002-0.037-0.003
						C188.113,68.689,188.109,68.69,188.089,68.691z"/>
				</g>
			</g>
		</g>
		<g>
			<path style="fill:#D26B9D;" d="M166.754,124.998c0,0-3.548-4.193,0-5c3.548-0.806,9.354,5.967,12.258,8.225
				c2.903,2.258,7.258,2.58,10.161-4.032c2.903-6.613,7.742-15.322,6.935-7.903c6.29-9.354,2.258-11.451-1.29-7.903
				c-3.548,3.548-9.354,8.064-20.805,7.097c-11.451-0.968-15.806,1.129-16.128,3.709
				C157.561,121.773,166.754,124.998,166.754,124.998z"/>
			<path style="fill:#933868;" d="M182.881,130.05c-1.374,0-2.79-0.526-4.092-1.539c-0.734-0.571-1.62-1.397-2.647-2.354
				c-2.88-2.687-6.815-6.376-9.307-5.803c-0.683,0.155-1.086,0.441-1.231,0.874c-0.363,1.088,0.908,2.921,1.428,3.536
				c0.106,0.125,0.116,0.306,0.022,0.441c-0.093,0.134-0.264,0.19-0.42,0.137c-0.969-0.34-9.46-3.404-9.111-6.195
				c0.202-1.613,2.215-5.236,16.519-4.027c11.059,0.935,16.772-3.246,20.518-6.991c1.649-1.648,3.45-2.186,4.479-1.338
				c1.57,1.292,0.587,4.918-2.629,9.701c-0.093,0.138-0.271,0.197-0.427,0.138c-0.157-0.057-0.255-0.215-0.237-0.381
				c0.237-2.175-0.08-2.433-0.093-2.443c-0.004,0-0.007,0-0.01,0c-0.71,0-3.401,4.299-6.137,10.532
				c-1.376,3.136-3.171,5.004-5.334,5.551C183.749,129.997,183.316,130.05,182.881,130.05z M167.366,119.569
				c2.777,0,6.353,3.334,9.272,6.056c1.014,0.945,1.889,1.761,2.597,2.312c1.534,1.193,3.226,1.635,4.757,1.248
				c1.907-0.483,3.583-2.26,4.846-5.139c0.841-1.914,5.115-11.439,7.013-10.937c0.487,0.13,0.715,0.689,0.71,1.809
				c2.605-4.21,2.927-6.814,2.015-7.564c-0.702-0.578-2.176-0.035-3.501,1.291c-3.856,3.857-9.736,8.162-21.094,7.202
				c-14.062-1.185-15.6,2.297-15.737,3.392c-0.188,1.496,4.137,3.697,7.518,5.007c-0.562-0.889-1.195-2.208-0.848-3.246
				c0.229-0.685,0.82-1.141,1.759-1.354C166.898,119.593,167.129,119.569,167.366,119.569z"/>
		</g>
		<path style="opacity:0.77;fill:#B7AEC2;" d="M199.335,109.427c-2.043,0.952-4.074,1.926-5.963,3.157
			c-0.838,0.546-1.652,1.16-2.346,1.883c-0.997,1.04-1.723,2.306-2.442,3.542c-1.321,2.272-2.786,4.536-5.601,4.942
			c-1.489,0.215-3.067,0.058-4.456-0.523c-1.429-0.597-2.642-1.575-3.852-2.52c-1.21-0.944-2.451-1.886-3.945-2.324
			c-1.798-0.527-3.703-0.783-5.449,0.101c-0.747,0.379-1.253,0.817-1.758,1.49c-0.459,0.613-0.874,1.273-1.435,1.801
			c-0.564,0.531-1.285,0.801-2.037,0.872c2.629,1.718,6.703,3.148,6.703,3.148s-3.548-4.193,0-5
			c3.548-0.806,9.354,5.968,12.258,8.225c2.903,2.258,7.258,2.581,10.161-4.032c2.903-6.613,7.742-15.322,6.935-7.903
			C198.148,113.255,199.098,110.989,199.335,109.427z"/>
		<g>
			<path d="M72.989,126.812c19.453-15.015,47.23-17.743,69.284-6.944c3.135,1.518,6.15,3.273,9.007,5.25
				c-2.923-1.878-5.989-3.524-9.157-4.927C119.977,109.965,92.824,112.665,72.989,126.812L72.989,126.812z"/>
			<path d="M67.598,139.135c21.65-13.839,49.191-17.835,73.978-11.239c0,0,5.252,1.6,5.252,1.6l5.142,1.911l-5.196-1.742
				l-5.286-1.424C116.685,122.196,89.589,126.155,67.598,139.135L67.598,139.135z"/>
			<path d="M81.478,165.144c9.529-16.059,25.885-27.812,44.022-32.109c0,0,3.913-0.779,3.913-0.779l3.946-0.553l-3.913,0.728
				l-3.86,0.949C107.692,138.169,91.698,149.695,81.478,165.144L81.478,165.144z"/>
			<path d="M203.354,114c11.034-10.094,27.761-13.294,41.766-8.047c4.663,1.697,9.032,4.207,12.755,7.45
				c-3.911-3.006-8.298-5.355-12.94-6.923C230.951,101.564,214.807,104.657,203.354,114L203.354,114z"/>
			<path d="M202.987,107.199c11.962-12.116,29.856-17.917,46.658-15.194c5.583,0.866,11.029,2.607,16.059,5.169
				c-5.121-2.314-10.58-3.859-16.14-4.615C232.852,90.147,215.38,95.782,202.987,107.199L202.987,107.199z"/>
			<path d="M203.527,103.64c9.404-14.301,25.628-23.775,42.692-25.024c5.665-0.449,11.396-0.04,16.929,1.234
				c-5.562-1.012-11.261-1.227-16.88-0.676C229.358,80.702,213.496,89.932,203.527,103.64L203.527,103.64z"/>
		</g>
		
			<path style="fill:none;stroke:#AA2800;stroke-width:0.7275;stroke-linecap:round;stroke-linejoin:round;stroke-miterlimit:10;" d="
			M168.206,89.355"/>
		<path d="M165.088,42.314c0,0,17.741-10,34.084,14.838c-8.387-15.268-18.279-23.547-25.483-24.622
			c0.215-0.753,0.215-0.753,0.215-0.753s-6.559-3.011-11.935,0.538C159.927,34.143,163.583,41.992,165.088,42.314z"/>
		<g>
			<path style="fill:#D26B9D;" d="M61.33,105.752c0,0-0.458,1.762-2.643,1.843c3.399-5.503,4.047-9.874,4.047-9.874
				s-6.393,1.376-9.874-0.162c2.59-2.266,5.018-2.266,5.018-2.266s-3.156-1.214-3.966-2.266c1.78-0.647,3.48,0.324,3.48,0.324
				s-4.986-5.286-14.341-13.834c-9.354-8.548-15.967-10.967-19.838-5.806c-3.871,5.161-7.323,22.181-2.903,33.547
				c3.387,8.709,9.354,14.032,20.483,15.483C51.921,124.192,55.738,122.633,61.33,105.752z"/>
			<path style="fill:#933868;" d="M45.962,123.508c-1.552,0-3.275-0.154-5.217-0.407c-10.683-1.394-17.09-6.24-20.774-15.713
				c-4.378-11.257-1.228-28.324,2.952-33.896c1.267-1.689,2.86-2.635,4.736-2.811c3.817-0.365,8.937,2.444,15.637,8.567
				c9.258,8.459,14.31,13.8,14.36,13.853c0.124,0.131,0.133,0.332,0.022,0.474c-0.11,0.142-0.307,0.182-0.466,0.092
				c-0.013-0.008-1.215-0.673-2.58-0.453c0.915,0.707,2.667,1.466,3.377,1.739c0.163,0.063,0.258,0.233,0.226,0.405
				c-0.031,0.172-0.181,0.298-0.356,0.298c-0.022,0-2.044,0.033-4.305,1.785c3.426,1.117,9.025-0.064,9.083-0.077
				c0.117-0.026,0.238,0.008,0.326,0.09c0.086,0.081,0.128,0.2,0.111,0.319c-0.025,0.174-0.645,4.164-3.698,9.349
				c1.047-0.289,1.436-1.07,1.547-1.358c0.014-0.043,0.028-0.085,0.042-0.128c0.063-0.186,0.258-0.289,0.449-0.235
				c0.188,0.056,0.298,0.25,0.249,0.44c-0.018,0.067-0.042,0.141-0.072,0.218C57.031,119.824,53.555,123.508,45.962,123.508z
				 M28.331,71.379c-0.205,0-0.407,0.009-0.604,0.027c-1.687,0.158-3.068,0.984-4.223,2.523c-3.646,4.862-7.278,21.824-2.855,33.197
				c3.576,9.195,9.803,13.9,20.191,15.254c10.178,1.328,14.17,0.457,19.511-14.878c-0.43,0.252-0.975,0.432-1.651,0.456
				c-0.135,0.014-0.261-0.064-0.328-0.18c-0.067-0.116-0.065-0.26,0.005-0.374c2.652-4.294,3.615-7.921,3.897-9.222
				c-1.635,0.297-6.571,1.033-9.561-0.29c-0.114-0.05-0.194-0.155-0.213-0.277c-0.018-0.123,0.027-0.247,0.12-0.329
				c1.502-1.314,2.949-1.895,3.944-2.152c-1.023-0.466-2.404-1.186-2.941-1.885c-0.071-0.092-0.094-0.212-0.062-0.324
				c0.032-0.111,0.117-0.2,0.225-0.24c0.831-0.302,1.64-0.285,2.297-0.163c-1.921-1.964-6.453-6.499-13.279-12.737
				C36.625,74.137,31.879,71.379,28.331,71.379z"/>
		</g>
		<path style="fill:#D26B9D;" d="M52.86,97.56c2.59-2.266,5.018-2.266,5.018-2.266s-3.156-1.214-3.965-2.266
			c1.78-0.647,3.48,0.324,3.48,0.324s-3.785-4.011-10.939-10.692c-1.291,0.593-2.463,1.41-3.431,2.459
			c-1.359,1.474-2.211,3.242-2.995,5.064c-2.192,5.094-3.303,10.966-0.774,16.158c2.04,4.188,6.111,6.986,10.545,8.141
			c2.584,0.673,5.274,0.812,7.912,0.494c1.175-2.369,2.337-5.362,3.586-9.124c-0.132,0.366-0.73,1.673-2.609,1.743
			c3.399-5.503,4.047-9.874,4.047-9.874S56.34,99.097,52.86,97.56z"/>
		<path d="M145.996,43.347c0,0-15.195-10-11.429-13.637c3.766-3.636,21.559-3.896,28.442-0.13c-6.234-0.13-16.104,0.26-20.13,2.208
			C138.852,33.736,138.333,36.594,145.996,43.347z"/>
		<path d="M82.011,91.394c0,0-6.274,24.465,23.402,33.282c-6.881-0.215-8.602-0.43-8.602-0.43l4.946,2.15
			c0,0-9.892-1.29-15.698-7.527c3.656,5.376,7.096,6.451,7.096,6.451S65.348,114.502,82.011,91.394z"/>
		<path d="M88.323,88.059c0,0,8.034-36.932,37.192-30.842c0,0-9.719-15.81-25.918-5.831c1.685,0.259,1.685,0.259,1.685,0.259
			s-7.775,4.536-10.497,11.015c1.685-1.037,3.369-2.203,3.369-2.203S84.047,70.306,88.323,88.059z"/>
		<path d="M72.25,118.019c2.156,6.704,8.841,12.18,15.837,11.372c5.984,5.074,14.409,5.797,22.239,6.291
			c-3.751,0.398-7.571,0.141-11.235-0.756c1.411,1.16,2.823,2.32,4.235,3.48c-3.621-0.261-7.184-1.292-10.385-3.005
			c0.509,1.24,1.389,2.325,2.497,3.079c-3.604-0.945-6.863-3.157-9.071-6.159c1.763,2.762,3.526,5.523,5.29,8.285
			c-2.123-1.517-4.246-3.034-6.369-4.551c-0.083,0.701-0.166,1.401-0.248,2.102c-1.747-2.281-3.494-4.561-5.241-6.841
			c-0.568,5.311,2.374,10.528,6.463,13.965c4.089,3.436,9.203,5.38,14.272,7.061c5.069,1.681,10.264,3.189,14.842,5.941
			c-7.349-1.217-14.697-2.434-22.046-3.652c1.062,1.257,2.123,2.513,3.185,3.77c-2.789-1.469-5.578-2.938-8.367-4.407
			c1.433,1.465,2.866,2.93,4.299,4.395c-6.225-2.211-11.709-6.455-15.411-11.926c0.206,1.524,0.411,3.049,0.617,4.573
			c-0.742-1.557-1.485-3.115-2.227-4.672c-0.213,1.552-0.426,3.104-0.639,4.656c-2.133-2.017-2.69-5.207-2.572-8.14
			c0.118-2.933,0.788-5.846,0.61-8.776c-0.222-3.672-1.828-7.243-4.426-9.846c-0.766,4.132-1.531,8.264-2.296,12.396
			c-0.573-3.207-1.146-6.415-1.719-9.622c-0.487,2.046-0.975,4.092-1.462,6.138c-1.503-4.55-1.593-9.557-0.254-14.158
			c-0.726,0.835-1.453,1.67-2.179,2.504c0.876-1.007,1.003-5.172,1.488-6.61c0.767-2.279,1.783-4.475,3.014-6.54
			c1.665-2.791,5.911-9.501,9.426-9.835C72.362,105.117,69.999,111.016,72.25,118.019z"/>
		<g>
			<path d="M206.57,111.147c-0.021-0.256-0.439,0.132-0.437,0.297c0.082,7.35,0.241,15.041-4.544,21.13
				c-4.05,5.154-11.12,8.676-17.44,5.472c-0.058-0.029-0.123-0.036-0.191-0.032c0.14-0.353,0.289-0.702,0.41-1.062
				c0.435-1.296,0.747-2.629,0.934-3.983c0.162-1.169,0.412-2.487-0.026-3.603c-0.137-0.349-0.654,0.314-0.691,0.456
				c-0.586,2.191-0.502,4.503-1.151,6.714c-0.652,2.219-1.701,4.356-3.192,6.132c-3.299,3.928-8.673,5.665-13.561,6.558
				c-9.856,1.801-20.245-0.313-28.518-5.982c-4.183-2.866-7.633-6.511-10.59-10.61c-0.098-0.135-0.5,0.282-0.418,0.425
				c4.885,8.624,13.868,14.861,23.446,17.124c5.42,1.281,11.101,1.34,16.55,0.192c4.97-1.047,10.083-2.947,13.513-6.856
				c1.095-1.248,1.98-2.658,2.7-4.15c6.156,3.717,14.13-0.661,18.193-5.554c2.351-2.83,3.981-6.203,4.712-9.81
				C207.126,119.775,206.917,115.422,206.57,111.147z"/>
			<path d="M199.43,135.304c-0.18-0.159-0.647,0.375-0.487,0.561c2.747,3.189,4.822,7.085,5.805,11.185
				c1.011,4.222,0.745,8.462-0.343,12.636c-0.172,0.659,0.749,0.048,0.862-0.248C208.381,151.302,205.932,141.077,199.43,135.304z"
				/>
		</g>
		<g>
			<path d="M210.539,89.295c0.562-0.519,1.125-1.038,1.687-1.557c-1.19,3.358-2.802,6.565-4.788,9.523
				c2.363-2.12,4.763-4.284,6.39-7.01c1.627-2.726,2.393-6.15,1.256-9.114c0.719,1.032,1.439,2.064,2.158,3.097
				c-0.544-0.78-0.559-2.778-0.962-3.755c-0.519-1.257-1.221-2.436-2.065-3.502c-0.823-1.04-4.768-5.348-6.395-4.366
				c-0.846,0.511,2.064,5.751,2.427,7.155C211.051,82.868,211.177,86.152,210.539,89.295z"/>
			<path d="M222.98,108.058c0.262,7.45-1.435,14.96-4.874,21.574c3.143-4.255,5.962-8.838,7.486-13.905
				c1.524-5.066,1.665-10.685-0.432-15.542c1.838,2.258,3.031,5.035,3.405,7.923c1.389-5.676-0.986-12.085-5.738-15.486
				c1.434,0.795,2.771,1.764,3.973,2.879c-0.442-0.411-0.661-2.095-0.994-2.715c-0.488-0.91-1.11-1.747-1.83-2.486
				c-1.35-1.386-3.412-2.84-5.392-3.078c-1.442-0.174-1.492,0.356-0.912,1.501c0.578,1.141,1.173,2.265,1.685,3.438
				c1.021,2.341,1.837,4.771,2.436,7.254C222.477,102.247,222.878,105.147,222.98,108.058z"/>
		</g>
		<g>
			<path style="fill:#FFFFFF;" d="M126.369,170.714c0.493,0.198,0.997,0.366,1.52,0.472
				C127.385,171.014,126.878,170.858,126.369,170.714z"/>
			<path style="fill:#FFFFFF;" d="M201.202,138.008c-0.161-0.428-0.333-0.854-0.523-1.274
				C200.787,137.192,200.978,137.61,201.202,138.008z"/>
			<path style="opacity:0.77;fill:#B7AEC2;" d="M236.146,99.308c-3.375-1.646-6.075-4.38-8.69-7.075
				c5.132,5.433,9.223,11.846,11.987,18.791c-2.181-2.326-4.362-4.652-6.544-6.978c1.549,5.269,3.097,10.537,4.646,15.806
				c-1.179-2.324-2.357-4.649-3.536-6.973c-2.761,10.528-9.674,19.907-18.912,25.66c-2.413,1.503-5.103,2.797-7.945,2.751
				c-2.372-0.038-4.82-1.271-5.95-3.282c4.158,11.019-1.059,24.353-10.552,31.497c-9.862,7.422-23.162,8.99-35.337,6.963
				c-12.175-2.028-23.539-7.284-34.732-12.486c0.659,3.014,2.935,5.587,5.788,6.731c0.509,0.145,1.016,0.3,1.52,0.472
				c-0.522-0.106-1.027-0.274-1.52-0.472c-7.059-2.008-14.636-1.521-21.984-0.889c-7.878,0.678-15.946,1.475-23.587-0.558
				c-7.641-2.033-14.896-7.583-16.504-15.325c-2.892,6.258-3.794,13.417-2.546,20.197c-6.464-10.08-9.472-22.333-8.408-34.261
				c-1.563,1.902-3.126,3.803-4.689,5.705c0.92-4.362,1.839-8.724,2.758-13.087c-6.237,4.924-12.473,9.847-18.71,14.771
				c0.199,0.919,0.585,1.343,0.585,1.343s4.189-3.232,10.892-7.062c-7.9,13.525,0.574,23.148,0.574,23.148
				s-1.436-8.043,2.298-16.948c2.011,20.97,24.13,34.471,24.13,34.471s-4.596-8.331-4.309-16.086
				c10.054,30.162,58.314,18.672,58.314,18.672s-4.596-1.436-8.331-4.596c12.927,2.585,25.279-1.149,25.279-1.149s0,0-2.585-2.585
				c32.747,9.48,60.899,3.447,66.357-20.683c4.883-4.596,6.607-7.756,6.607-7.756s0.287,2.873-0.574,7.182
				c10.054-6.032,16.086-17.523,16.086-17.523s0.575,2.585-0.862,6.033c4.883-6.033,8.331-16.087,8.331-16.087
				s0.287,4.883-2.873,13.788c17.81-29.3,4.022-40.791,4.022-40.791s5.458,4.596,8.618,7.756c-0.415-2.811-1.098-5.412-1.949-7.803
				C240.911,100.908,238.346,100.38,236.146,99.308z"/>
		</g>
		<g>
			<path d="M152.279,100.696c-2.025,1.77-3.34,4.519-3.024,7.239c0.059,0.507,0.822-0.22,0.821-0.535
				c-0.007-2.354,0.735-4.704,2.375-6.434C152.661,100.746,152.578,100.435,152.279,100.696z"/>
			<path d="M155.93,103.151c-1.257,1.048-2.321,2.298-3.027,3.784c-0.36,0.758-0.627,1.567-0.764,2.396
				c-0.042,0.254-0.072,0.51-0.091,0.766c-0.163-0.878-0.289-1.76-0.269-2.657c0.025-1.106,0.248-2.225,0.636-3.26
				c0.056-0.149-0.04-0.218-0.173-0.193c-0.164,0.03-0.325,0.234-0.391,0.373c-0.531,1.129-0.837,2.315-0.901,3.561
				c-0.061,1.189,0.063,2.444,0.619,3.51c0.106,0.203,0.363-0.004,0.514-0.234c0.038,0.206,0.095,0.41,0.178,0.609
				c0.122,0.294,0.588-0.3,0.591-0.459c0.015-0.745-0.012-1.506,0.085-2.246c0.1-0.766,0.329-1.517,0.65-2.217
				c0.598-1.303,1.498-2.47,2.488-3.5C156.261,103.191,156.192,102.932,155.93,103.151z"/>
			<path d="M158.34,120.33c-1.544-1.622-2.893-3.453-3.486-5.641c-0.628-2.32-0.466-5.046,0.543-7.246
				c0.13-0.284-0.221-0.068-0.292,0.061c-1.292,2.35-1.791,4.885-1.217,7.539c0.509,2.355,1.842,4.629,3.914,5.906
				C158.032,121.089,158.53,120.53,158.34,120.33z"/>
			<path d="M199.159,103.701c-0.384-0.469-0.822-0.873-1.299-1.218c0.19-0.06,0.421-0.355,0.301-0.484
				c-1.268-1.371-3.267-2.113-4.979-2.768c-1.863-0.712-3.779-1.419-5.442-2.539c-0.11-0.075-0.378,0.234-0.278,0.32
				c1.461,1.271,3.177,2.048,4.935,2.813c0.918,0.399,1.85,0.764,2.748,1.208c0.298,0.147,0.585,0.313,0.874,0.476
				c-1.035-0.39-2.149-0.589-3.264-0.599c-0.184-0.002-0.614,0.507-0.369,0.551c2.271,0.402,4.327,1.579,6.116,2.995
				C198.772,104.67,199.373,103.962,199.159,103.701z"/>
			<path d="M196.221,98.789c-1.831-1.598-4.084-2.762-6.301-3.732c-2.324-1.017-4.724-1.719-7.226-2.135
				c-0.224-0.037-0.655,0.543-0.401,0.601c2.348,0.531,4.674,1.286,6.88,2.252c2.298,1.006,4.359,2.354,6.491,3.654
				C195.903,99.575,196.435,98.976,196.221,98.789z"/>
			<path d="M186.198,88.976c-2.228-1.507-5.245-1.788-7.858-1.498c-2.755,0.307-5.298,1.435-7.414,3.217
				c-0.134,0.113-0.252,0.529,0.034,0.323c2.092-1.51,4.623-2.404,7.185-2.663c1.81-0.183,3.519,0.05,5.215,0.473
				c-2.295,0.057-4.634,0.932-6.506,2.128c-0.071,0.045-0.23,0.35-0.052,0.259c1.211-0.625,2.498-1.069,3.83-1.348
				c1.394-0.292,2.8-0.34,4.219-0.365c0.068-0.001,0.177-0.08,0.27-0.176c0.217,0.068,0.434,0.135,0.652,0.207
				C185.949,89.591,186.377,89.097,186.198,88.976z"/>
		</g>
		<g>
			<path style="fill:#FFFFFF;" d="M192.43,110.223c-2.816,3.002-6.123,4.826-10.22,5.402c-4.246,0.596-8.582,0.151-12.849,0.068
				c-0.197-0.004-0.638,0.534-0.385,0.576c8.088,1.337,18.741,1.875,23.975-5.795C193.33,109.919,192.783,109.846,192.43,110.223z"
				/>
			<path style="fill:#FFFFFF;" d="M196.311,107.509c-0.061-0.063-0.205-0.039-0.27-0.005c-0.111,0.059-0.223,0.118-0.333,0.179
				c-0.122,0.068-0.23,0.156-0.34,0.243c-0.16,0.126-0.315,0.257-0.466,0.393c-0.329,0.296-0.641,0.614-0.931,0.948
				c-0.088,0.101-0.174,0.235-0.207,0.367c-0.018,0.072-0.033,0.209,0.042,0.263c0.199,0.144,0.479-0.122,0.6-0.251
				c0.032-0.034,0.064-0.068,0.096-0.101c0.008-0.008,0.016-0.017,0.024-0.025c0.058-0.062,0.122-0.12,0.184-0.177
				c0.139-0.13,0.282-0.256,0.428-0.377c0.071-0.059,0.144-0.117,0.217-0.174c0.01-0.007,0.019-0.015,0.029-0.022
				c0.031-0.023,0.062-0.046,0.093-0.068c0.193-0.139,0.372-0.29,0.555-0.441c0.099-0.081,0.18-0.189,0.241-0.3
				c0.046-0.083,0.101-0.193,0.095-0.292C196.366,107.609,196.353,107.553,196.311,107.509z"/>
		</g>
		<g style="opacity:0.77;">
			<path style="fill:#B7AEC2;" d="M30.227,51.884c7.983,0.445,15.401,4.185,22.192,8.407c6.79,4.222,13.293,9.037,20.701,12.048
				c0.014-8.965,2.109-17.873,5.886-26c-5.395,7.253-8.689,14.369-8.689,14.369s-7.589,1.712-23.717-8.61
				c-7.653-3.402-14.406-2.745-20.13-0.121C27.723,51.854,28.983,51.814,30.227,51.884z"/>
		</g>
		<g>
			<path style="opacity:0.77;fill:#B7AEC2;" d="M110.302,22.87c6.079-1.664,11.29-2.594,15.507-3.101
				c-3.247-0.297-6.084,0.435-6.084,0.435s17.235-6.032,27.29-3.447c-0.891-0.688-1.805-1.284-2.731-1.823
				C135.295,12.948,121.06,12.112,110.302,22.87z"/>
			<path style="opacity:0.77;fill:#B7AEC2;" d="M102.283,24.607c0,0,1.843-3.501,5.269-7.345c0.727-1.363,3.951-6.529,13.322-11.707
				c-0.68,0-1.38,0.058-2.091,0.162C113.221,7.613,105.736,12.42,102.283,24.607z"/>
		</g>
		<g>
			<path style="fill:#FFFFFF;" d="M172.461,88.4c-2.658-4.979-5.015-10.027-6.597-15.461c-1.627-5.59-2.646-11.378-2.873-17.2
				c-0.006-0.158-0.277,0.087-0.278,0.192c-0.056,11.497,2.653,23.483,8.746,33.34C171.746,89.736,172.672,88.795,172.461,88.4z"/>
			<path style="fill:#FFFFFF;" d="M178.219,96.197c-0.213-0.202-0.411-0.429-0.639-0.612c-0.242-0.195-0.489-0.382-0.726-0.583
				c-0.462-0.39-0.914-0.797-1.347-1.218c-0.866-0.84-1.648-1.762-2.339-2.75c-0.142-0.203-0.739,0.4-0.608,0.615
				c0.637,1.046,1.364,2.036,2.183,2.947c0.407,0.453,0.836,0.879,1.294,1.28c0.222,0.195,0.449,0.384,0.681,0.568
				c0.257,0.204,0.566,0.346,0.857,0.497C177.859,97.088,178.473,96.437,178.219,96.197z"/>
		</g>
	</g>
	<path style="fill:#F89200;" d="M224.66,248.401c0,0,16.484-11.951,31.526,15.66C250.622,256.849,238.259,243.044,224.66,248.401z"
		/>
	<path style="fill:#F89200;" d="M165.426,223.761c-0.11-0.222-0.562,0.25-0.494,0.442c5.956,16.867-4.486,33.428-7.832,49.604
		c-0.949,4.587-1.809,10.042-0.291,14.59c0.275,0.825,1.483-0.634,1.486-1.076c0.011-2.216-0.16-4.431-0.071-6.646
		c0.09-2.232,0.374-4.458,0.783-6.653c0.808-4.332,2.106-8.549,3.477-12.731c2.586-7.892,5.407-15.881,5.658-24.269
		C168.278,232.411,167.475,227.912,165.426,223.761z"/>
</g>
</svg>
